<svg width="449" height="271" viewBox="0 0 449 271" fill="none" xmlns="http://www.w3.org/2000/svg">
<path d="M63.1183 269H386.641C413.317 269 429.243 239.286 414.473 217.072C413.276 215.271 412.256 213.358 411.428 211.36L357 80L355.622 92.1745C352.989 115.429 333.317 133 309.914 133H223.5L137.537 134.939C111.733 135.521 90.5 114.762 90.5 88.9507V80L31.6044 214.364C17.5647 238.635 35.0791 269 63.1183 269Z" fill="#E9E9E9"/>
<path d="M63.1183 269H386.641C413.317 269 429.243 239.286 414.473 217.072C413.276 215.271 412.256 213.358 411.428 211.36L357 80L355.622 92.1745C352.989 115.429 333.317 133 309.914 133H223.5L137.537 134.939C111.733 135.521 90.5 114.762 90.5 88.9507V80L31.6044 214.364C17.5647 238.635 35.0791 269 63.1183 269Z" fill="url(#paint0_linear)"/>
<path d="M90.5 80L31.6044 214.364V214.364C17.5647 238.635 35.0791 269 63.1183 269H386.641C413.317 269 429.243 239.286 414.473 217.072V217.072C413.276 215.271 412.256 213.358 411.428 211.36L357 80" stroke="black" stroke-width="3"/>
<path d="M104.651 32.3521C110.576 13.9645 127.688 1.5 147.007 1.5H296.983C315.599 1.5 332.248 13.0876 338.713 30.5445L354.639 73.5445C365.404 102.609 343.903 133.5 312.909 133.5H133.151C102.965 133.5 81.5379 104.084 90.7958 75.3521L104.651 32.3521Z" fill="white" stroke="black" stroke-width="3"/>
<defs>
<linearGradient id="paint0_linear" x1="224.5" y1="80" x2="224.5" y2="269" gradientUnits="userSpaceOnUse">
<stop stop-color="white"/>
<stop offset="1" stop-color="white" stop-opacity="0"/>
</linearGradient>
</defs>
</svg>
