<svg width="1019" height="627" viewBox="0 0 1019 627" fill="none" xmlns="http://www.w3.org/2000/svg">
<path d="M19.45 30.5C18.3834 30.5 17.3667 30.3167 16.4 29.95C15.4667 29.5833 14.5 29.15 13.5 28.65C12.6334 28.2167 11.8834 27.8667 11.25 27.6C10.6167 27.3 9.98336 27.15 9.35003 27.15C8.55003 27.15 7.90002 27.4333 7.40002 28C6.93336 28.5333 6.50003 29.3667 6.10002 30.5L0.800024 28.6C1.33336 26.3333 2.25002 24.5 3.55002 23.1C4.88336 21.7 6.55002 21 8.55002 21C9.61669 21 10.6167 21.1833 11.55 21.55C12.5167 21.9167 13.5 22.35 14.5 22.85C15.3667 23.2833 16.1167 23.65 16.75 23.95C17.3834 24.2167 18.0167 24.35 18.65 24.35C19.45 24.35 20.0834 24.0833 20.55 23.55C21.05 22.9833 21.5 22.1333 21.9 21L27.2 22.9C26.6667 25.1667 25.7334 27 24.4 28.4C23.1 29.8 21.45 30.5 19.45 30.5Z" fill="black"/>
<path d="M102.741 28.85L99.8914 16.25V6.10001H107.991V16.25L105.141 28.85H102.741ZM103.941 41.6C102.141 41.6 100.875 41.2167 100.141 40.45C99.4081 39.6833 99.0414 38.7667 99.0414 37.7V36.1C99.0414 35.0667 99.4081 34.1667 100.141 33.4C100.908 32.6333 102.175 32.25 103.941 32.25C105.708 32.25 106.958 32.6333 107.691 33.4C108.458 34.1667 108.841 35.0667 108.841 36.1V37.7C108.841 38.7667 108.475 39.6833 107.741 40.45C107.008 41.2167 105.741 41.6 103.941 41.6Z" fill="black"/>
<path d="M201.183 46.65H195.933C193.166 46.65 190.816 46.2167 188.883 45.35C186.95 44.4833 185.383 43.1833 184.183 41.45C182.983 39.7167 182.116 37.55 181.583 34.95C181.05 32.3167 180.783 29.25 180.783 25.75C180.783 21.95 181.066 18.7667 181.633 16.2C182.233 13.6 183.083 11.5167 184.183 9.95001C185.316 8.35001 186.7 7.21668 188.333 6.55001C189.966 5.85001 191.833 5.50001 193.933 5.50001C196.099 5.50001 197.966 5.81668 199.533 6.45001C201.133 7.08335 202.45 7.96668 203.483 9.10001C204.516 10.2 205.283 11.5 205.783 13C206.283 14.5 206.533 16.1167 206.533 17.85V36.45H201.183V33.4H200.833C200.466 34.6333 199.883 35.55 199.083 36.15C198.283 36.75 197.3 37.05 196.133 37.05C194.166 37.05 192.633 36.2 191.533 34.5C190.466 32.7667 189.933 30.0333 189.933 26.3C189.933 22.5667 190.466 19.85 191.533 18.15C192.633 16.4167 194.166 15.55 196.133 15.55C197.3 15.55 198.283 15.85 199.083 16.45C199.883 17.05 200.466 17.9667 200.833 19.2H201.183V17.85C201.183 16.45 201.016 15.2667 200.683 14.3C200.349 13.3333 199.866 12.55 199.233 11.95C198.633 11.35 197.9 10.9167 197.033 10.65C196.2 10.3833 195.266 10.25 194.233 10.25C193 10.25 191.899 10.45 190.933 10.85C189.966 11.25 189.133 11.9333 188.433 12.9C187.766 13.8667 187.25 15.1833 186.883 16.85C186.55 18.5167 186.383 20.6 186.383 23.1V29.55C186.383 31.4833 186.55 33.2167 186.883 34.75C187.25 36.2833 187.816 37.5833 188.583 38.65C189.35 39.6833 190.333 40.4667 191.533 41C192.733 41.5667 194.199 41.85 195.933 41.85H201.183V46.65ZM198.333 32.75C199.266 32.75 199.966 32.4833 200.433 31.95C200.933 31.4167 201.183 30.7 201.183 29.8V22.8C201.183 21.9 200.933 21.1833 200.433 20.65C199.966 20.1167 199.266 19.85 198.333 19.85C197.433 19.85 196.733 20.1833 196.233 20.85C195.766 21.5167 195.533 22.7833 195.533 24.65V27.95C195.533 29.8167 195.766 31.0833 196.233 31.75C196.733 32.4167 197.433 32.75 198.333 32.75Z" fill="black"/>
<path d="M274.674 31.3H269.274V25.8H275.674L276.424 21.3H271.174V15.8H277.424L279.124 6.10001H284.974L278.824 41H272.974L274.674 31.3ZM288.824 6.10001H294.674L292.974 15.8H298.374V21.3H291.974L291.224 25.8H296.474V31.3H290.224L288.524 41H282.674L288.824 6.10001Z" fill="black"/>
<path d="M371.416 41.5C368.916 41.3 366.716 40.75 364.816 39.85C362.949 38.9167 361.432 37.7 360.266 36.2L364.616 31.45C365.682 32.5833 366.816 33.4667 368.016 34.1C369.249 34.7333 370.549 35.15 371.916 35.35V26.15L370.766 25.95C367.566 25.3833 365.199 24.2167 363.666 22.45C362.132 20.65 361.366 18.4667 361.366 15.9C361.366 13.0667 362.232 10.7667 363.966 9.00001C365.699 7.23335 368.182 6.13335 371.416 5.70001V0.450012H377.116V5.65001C379.216 5.91668 380.999 6.45001 382.466 7.25001C383.966 8.05001 385.216 9.03335 386.216 10.2L381.916 15C380.516 13.4667 378.749 12.4667 376.616 12V20.35L377.766 20.55C380.966 21.15 383.332 22.3167 384.866 24.05C386.399 25.75 387.166 27.8667 387.166 30.4C387.166 31.7667 386.932 33.05 386.466 34.25C386.032 35.45 385.382 36.5167 384.516 37.45C383.682 38.3833 382.632 39.1833 381.366 39.85C380.132 40.4833 378.716 40.95 377.116 41.25V46.65H371.416V41.5ZM368.416 15.65C368.416 16.7167 368.682 17.5333 369.216 18.1C369.782 18.6333 370.682 19.0667 371.916 19.4V11.85C370.682 12.05 369.782 12.4667 369.216 13.1C368.682 13.7333 368.416 14.5833 368.416 15.65ZM380.166 30.9C380.166 29.7667 379.882 28.9167 379.316 28.35C378.749 27.7833 377.849 27.35 376.616 27.05V35.3C377.816 35.0333 378.699 34.5333 379.266 33.8C379.866 33.0333 380.166 32.0667 380.166 30.9Z" fill="black"/>
<path d="M456.957 24.1C454.457 24.1 452.524 23.2833 451.157 21.65C449.79 19.9833 449.107 17.7 449.107 14.8C449.107 11.9 449.79 9.63335 451.157 8.00001C452.524 6.33335 454.457 5.50001 456.957 5.50001C459.457 5.50001 461.39 6.33335 462.757 8.00001C464.124 9.63335 464.807 11.9 464.807 14.8C464.807 17.7 464.124 19.9833 462.757 21.65C461.39 23.2833 459.457 24.1 456.957 24.1ZM456.957 19.75C457.924 19.75 458.59 19.4 458.957 18.7C459.357 18 459.557 17.0667 459.557 15.9V13.7C459.557 12.5333 459.357 11.6 458.957 10.9C458.59 10.2 457.924 9.85001 456.957 9.85001C455.99 9.85001 455.307 10.2 454.907 10.9C454.54 11.6 454.357 12.5333 454.357 13.7V15.9C454.357 17.0667 454.54 18 454.907 18.7C455.307 19.4 455.99 19.75 456.957 19.75ZM472.957 6.10001H478.607L471.057 21.1H465.407L472.957 6.10001ZM456.357 26H462.007L454.457 41H448.807L456.357 26ZM470.507 41.6C468.007 41.6 466.074 40.7833 464.707 39.15C463.34 37.4833 462.657 35.2 462.657 32.3C462.657 29.4 463.34 27.1333 464.707 25.5C466.074 23.8333 468.007 23 470.507 23C473.007 23 474.94 23.8333 476.307 25.5C477.674 27.1333 478.357 29.4 478.357 32.3C478.357 35.2 477.674 37.4833 476.307 39.15C474.94 40.7833 473.007 41.6 470.507 41.6ZM470.507 37.25C471.474 37.25 472.14 36.9 472.507 36.2C472.907 35.5 473.107 34.5667 473.107 33.4V31.2C473.107 30.0333 472.907 29.1 472.507 28.4C472.14 27.7 471.474 27.35 470.507 27.35C469.54 27.35 468.857 27.7 468.457 28.4C468.09 29.1 467.907 30.0333 467.907 31.2V33.4C467.907 34.5667 468.09 35.5 468.457 36.2C468.857 36.9 469.54 37.25 470.507 37.25Z" fill="black"/>
<path d="M561.448 29.05L553.798 12.9H553.198L545.548 29.05L539.998 26.35L549.748 6.10001H557.598L567.298 26.35L561.448 29.05Z" fill="black"/>
<path d="M638.94 41.6C637.373 41.6 635.99 41.3333 634.79 40.8C633.59 40.2333 632.573 39.5 631.74 38.6C630.94 37.6667 630.323 36.6 629.89 35.4C629.49 34.1667 629.29 32.8667 629.29 31.5C629.29 29.4 629.79 27.5667 630.79 26C631.79 24.4333 633.257 23.0833 635.19 21.95C634.123 20.45 633.307 19.1167 632.74 17.95C632.207 16.7833 631.94 15.5667 631.94 14.3C631.94 13.0667 632.173 11.9167 632.64 10.85C633.14 9.75001 633.823 8.81668 634.69 8.05001C635.59 7.25001 636.623 6.63335 637.79 6.20001C638.99 5.73335 640.29 5.50001 641.69 5.50001C642.923 5.50001 644.073 5.68335 645.14 6.05001C646.207 6.38335 647.14 6.83335 647.94 7.40001C648.773 7.96668 649.457 8.63335 649.99 9.40001C650.557 10.1333 650.973 10.9 651.24 11.7L646.14 14.45C645.773 13.3833 645.207 12.55 644.44 11.95C643.673 11.3167 642.79 11 641.79 11C640.79 11 639.973 11.3 639.34 11.9C638.74 12.5 638.44 13.2833 638.44 14.25V14.5C638.44 14.9667 638.507 15.4167 638.64 15.85C638.773 16.25 639.007 16.7167 639.34 17.25C639.673 17.75 640.09 18.35 640.59 19.05C641.123 19.7167 641.79 20.55 642.59 21.55L645.44 25.15L647.84 28.85H648.14C648.24 28.2833 648.323 27.6667 648.39 27C648.457 26.3 648.507 25.6 648.54 24.9C648.607 24.1667 648.64 23.4667 648.64 22.8C648.673 22.1 648.69 21.4667 648.69 20.9H657.59V26.4H654.09C653.923 27.4667 653.673 28.5667 653.34 29.7C653.007 30.8 652.573 31.9333 652.04 33.1L658.54 41H650.64L646.64 36.15H646.29C646.057 37.85 645.29 39.1833 643.99 40.15C642.69 41.1167 641.007 41.6 638.94 41.6ZM640.79 35.95C641.557 35.95 642.273 35.8167 642.94 35.55C643.607 35.25 644.173 34.7167 644.64 33.95L638.19 25.75C637.323 26.5833 636.757 27.4333 636.49 28.3C636.223 29.1333 636.09 30.0333 636.09 31V31.1C636.09 32.7 636.507 33.9167 637.34 34.75C638.207 35.55 639.357 35.95 640.79 35.95Z" fill="black"/>
<path d="M728.081 38L722.881 34.55L728.581 27.05L720.031 24.15L721.981 18.4L730.331 21.45V12.6H736.731V21.45L745.081 18.4L747.031 24.15L738.481 27.05L744.181 34.55L738.981 38L733.531 30.55L728.081 38Z" fill="black"/>
<path d="M817.173 25.45C817.173 23.0167 817.439 20.6833 817.973 18.45C818.539 16.1833 819.289 14.0833 820.223 12.15C821.189 10.2167 822.306 8.48335 823.573 6.95001C824.839 5.38335 826.173 4.06668 827.573 3.00001H834.973C833.406 4.06668 831.923 5.31668 830.523 6.75001C829.123 8.15001 827.889 9.70001 826.823 11.4C825.789 13.1 824.956 14.9167 824.323 16.85C823.689 18.7833 823.373 20.8 823.373 22.9V28C823.373 30.1 823.689 32.1167 824.323 34.05C824.956 35.9833 825.789 37.8 826.823 39.5C827.889 41.2 829.123 42.75 830.523 44.15C831.923 45.5833 833.406 46.8333 834.973 47.9H827.573C826.173 46.8667 824.839 45.5667 823.573 44C822.306 42.4333 821.189 40.6833 820.223 38.75C819.289 36.8167 818.539 34.7333 817.973 32.5C817.439 30.2333 817.173 27.8833 817.173 25.45Z" fill="black"/>
<path d="M919.714 25.45C919.714 27.8833 919.431 30.2333 918.864 32.5C918.331 34.7333 917.581 36.8167 916.614 38.75C915.681 40.6833 914.581 42.4333 913.314 44C912.047 45.5667 910.714 46.8667 909.314 47.9H901.914C903.447 46.8333 904.914 45.5833 906.314 44.15C907.747 42.75 908.981 41.2 910.014 39.5C911.081 37.8 911.931 35.9833 912.564 34.05C913.197 32.1167 913.514 30.1 913.514 28V22.9C913.514 20.8 913.197 18.7833 912.564 16.85C911.931 14.9167 911.081 13.1 910.014 11.4C908.981 9.70001 907.747 8.15001 906.314 6.75001C904.914 5.31668 903.447 4.06668 901.914 3.00001H909.314C910.714 4.06668 912.047 5.38335 913.314 6.95001C914.581 8.48335 915.681 10.2167 916.614 12.15C917.581 14.0833 918.331 16.1833 918.864 18.45C919.431 20.6833 919.714 23.0167 919.714 25.45Z" fill="black"/>
<path d="M991.355 50.6V44.55H1015.36V50.6H991.355Z" fill="black"/>
<path d="M10.8 102.9V93.7H2.10002V87.8H10.8V78.6H17.2V87.8H25.9V93.7H17.2V102.9H10.8Z" fill="black"/>
<path d="M93.6414 106V99.95H103.041V76.55H102.591L95.4914 85.85L90.6914 82.1L99.0414 71.1H110.541V99.95H117.941V106H93.6414Z" fill="black"/>
<path d="M206.633 106H181.533V99.15L192.533 90C194.433 88.3667 195.8 86.95 196.633 85.75C197.466 84.55 197.883 83.2833 197.883 81.95V81.45C197.883 79.9833 197.45 78.8833 196.583 78.15C195.716 77.3833 194.55 77 193.083 77C191.416 77 190.133 77.4833 189.233 78.45C188.333 79.4167 187.7 80.5667 187.333 81.9L180.783 79.4C181.183 78.2 181.733 77.0667 182.433 76C183.133 74.9 184.016 73.95 185.083 73.15C186.183 72.35 187.45 71.7167 188.883 71.25C190.316 70.75 191.966 70.5 193.833 70.5C195.733 70.5 197.433 70.7667 198.933 71.3C200.433 71.8333 201.699 72.5667 202.733 73.5C203.766 74.4333 204.55 75.55 205.083 76.85C205.616 78.1167 205.883 79.5 205.883 81C205.883 82.4667 205.633 83.8167 205.133 85.05C204.666 86.25 204 87.3833 203.133 88.45C202.3 89.5167 201.3 90.55 200.133 91.55C199 92.55 197.783 93.55 196.483 94.55L189.833 99.7H206.633V106Z" fill="black"/>
<path d="M282.474 84.9C284.408 84.9 285.808 84.5333 286.674 83.8C287.574 83.0667 288.024 82.1667 288.024 81.1V80.75C288.024 79.4833 287.591 78.4833 286.724 77.75C285.891 76.9833 284.691 76.6 283.124 76.6C281.691 76.6 280.341 76.9667 279.074 77.7C277.841 78.4 276.791 79.4167 275.924 80.75L271.174 76.35C271.841 75.4833 272.574 74.7 273.374 74C274.174 73.2667 275.058 72.65 276.024 72.15C276.991 71.6167 278.074 71.2167 279.274 70.95C280.508 70.65 281.891 70.5 283.424 70.5C285.324 70.5 287.041 70.7167 288.574 71.15C290.108 71.5834 291.408 72.2167 292.474 73.05C293.574 73.85 294.424 74.8167 295.024 75.95C295.624 77.0833 295.924 78.35 295.924 79.75C295.924 80.85 295.741 81.85 295.374 82.75C295.008 83.65 294.508 84.4333 293.874 85.1C293.274 85.7667 292.558 86.3167 291.724 86.75C290.924 87.15 290.058 87.4333 289.124 87.6V87.9C291.258 88.2667 293.024 89.1667 294.424 90.6C295.858 92 296.574 93.9 296.574 96.3C296.574 97.8667 296.241 99.2833 295.574 100.55C294.941 101.817 294.024 102.9 292.824 103.8C291.658 104.7 290.224 105.4 288.524 105.9C286.858 106.367 284.991 106.6 282.924 106.6C281.158 106.6 279.591 106.417 278.224 106.05C276.891 105.683 275.708 105.2 274.674 104.6C273.641 103.967 272.741 103.25 271.974 102.45C271.241 101.617 270.591 100.767 270.024 99.9L275.574 95.6C276.341 97.0333 277.291 98.2167 278.424 99.15C279.591 100.05 281.141 100.5 283.074 100.5C284.874 100.5 286.258 100.083 287.224 99.25C288.191 98.4167 288.674 97.2667 288.674 95.8V95.45C288.674 94.0167 288.124 92.95 287.024 92.25C285.924 91.5167 284.391 91.15 282.424 91.15H279.174V84.9H282.474Z" fill="black"/>
<path d="M375.716 106V99.3H360.016V92.9L373.916 71.1H382.916V93.5H387.416V99.3H382.916V106H375.716ZM366.066 93.5H375.716V78.85H375.266L366.066 93.5Z" fill="black"/>
<path d="M474.957 77.65H458.807L458.007 88.7H458.457C458.824 87.9 459.24 87.1667 459.707 86.5C460.174 85.8 460.724 85.2167 461.357 84.75C461.99 84.25 462.724 83.8667 463.557 83.6C464.39 83.3333 465.34 83.2 466.407 83.2C467.84 83.2 469.19 83.45 470.457 83.95C471.757 84.45 472.89 85.1833 473.857 86.15C474.857 87.0834 475.64 88.25 476.207 89.65C476.774 91.0167 477.057 92.5667 477.057 94.3C477.057 96.0667 476.757 97.7 476.157 99.2C475.557 100.7 474.674 102 473.507 103.1C472.374 104.2 470.957 105.067 469.257 105.7C467.557 106.3 465.624 106.6 463.457 106.6C461.757 106.6 460.24 106.417 458.907 106.05C457.574 105.683 456.39 105.2 455.357 104.6C454.357 103.967 453.474 103.25 452.707 102.45C451.974 101.617 451.34 100.767 450.807 99.9L456.257 95.6C456.657 96.2667 457.074 96.9 457.507 97.5C457.974 98.1 458.49 98.6333 459.057 99.1C459.657 99.5333 460.307 99.8834 461.007 100.15C461.74 100.383 462.574 100.5 463.507 100.5C465.374 100.5 466.774 100 467.707 99C468.674 97.9667 469.157 96.6 469.157 94.9V94.5C469.157 92.8667 468.674 91.5834 467.707 90.65C466.74 89.7167 465.407 89.25 463.707 89.25C462.307 89.25 461.14 89.5333 460.207 90.1C459.307 90.6333 458.624 91.1667 458.157 91.7L452.007 90.85L453.307 71.1H474.957V77.65Z" fill="black"/>
<path d="M553.848 106.6C551.748 106.6 549.865 106.283 548.198 105.65C546.565 104.983 545.182 104.05 544.048 102.85C542.915 101.617 542.048 100.15 541.448 98.45C540.848 96.75 540.548 94.85 540.548 92.75C540.548 90.3167 540.932 88.0167 541.698 85.85C542.465 83.65 543.448 81.6333 544.648 79.8C545.882 77.9333 547.248 76.2667 548.748 74.8C550.282 73.3333 551.798 72.1 553.298 71.1H563.648C561.482 72.6 559.532 74.05 557.798 75.45C556.098 76.8167 554.598 78.2 553.298 79.6C552.032 80.9667 550.982 82.3833 550.148 83.85C549.348 85.3167 548.765 86.9 548.398 88.6L548.848 88.75C549.148 88.0833 549.515 87.4334 549.948 86.8C550.382 86.1667 550.915 85.6167 551.548 85.15C552.182 84.65 552.915 84.25 553.748 83.95C554.615 83.65 555.615 83.5 556.748 83.5C558.215 83.5 559.582 83.7667 560.848 84.3C562.115 84.8 563.198 85.5333 564.098 86.5C565.032 87.4333 565.765 88.5667 566.298 89.9C566.832 91.2334 567.098 92.7334 567.098 94.4C567.098 96.1667 566.782 97.8 566.148 99.3C565.515 100.8 564.615 102.1 563.448 103.2C562.315 104.267 560.932 105.1 559.298 105.7C557.665 106.3 555.848 106.6 553.848 106.6ZM553.798 100.75C555.598 100.75 556.965 100.283 557.898 99.35C558.832 98.3833 559.298 97.0333 559.298 95.3V94.6C559.298 92.8667 558.815 91.55 557.848 90.65C556.915 89.7167 555.565 89.25 553.798 89.25C552.098 89.25 550.765 89.7167 549.798 90.65C548.832 91.55 548.348 92.8667 548.348 94.6V95.3C548.348 97.0333 548.798 98.3833 549.698 99.35C550.632 100.283 551.998 100.75 553.798 100.75Z" fill="black"/>
<path d="M636.79 106L648.79 77.2H637.49V83.55H631.14V71.1H656.24V77.6L644.69 106H636.79Z" fill="black"/>
<path d="M733.531 106.6C731.431 106.6 729.565 106.35 727.931 105.85C726.298 105.317 724.915 104.6 723.781 103.7C722.648 102.8 721.781 101.733 721.181 100.5C720.615 99.2333 720.331 97.8667 720.331 96.4C720.331 94.1333 720.981 92.3167 722.281 90.95C723.581 89.55 725.248 88.5667 727.281 88V87.6C725.548 86.9667 724.131 86 723.031 84.7C721.931 83.4 721.381 81.7333 721.381 79.7C721.381 78.3667 721.648 77.1333 722.181 76C722.715 74.8667 723.498 73.9 724.531 73.1C725.565 72.2667 726.831 71.6333 728.331 71.2C729.831 70.7333 731.565 70.5 733.531 70.5C735.465 70.5 737.181 70.7333 738.681 71.2C740.215 71.6333 741.498 72.2667 742.531 73.1C743.565 73.9 744.348 74.8667 744.881 76C745.415 77.1333 745.681 78.3667 745.681 79.7C745.681 81.7333 745.131 83.4 744.031 84.7C742.931 86 741.515 86.9667 739.781 87.6V88C741.815 88.5667 743.481 89.55 744.781 90.95C746.081 92.3167 746.731 94.1333 746.731 96.4C746.731 97.8667 746.431 99.2333 745.831 100.5C745.265 101.733 744.415 102.8 743.281 103.7C742.148 104.6 740.765 105.317 739.131 105.85C737.498 106.35 735.631 106.6 733.531 106.6ZM733.531 100.85C735.265 100.85 736.581 100.45 737.481 99.65C738.415 98.85 738.881 97.7667 738.881 96.4V95.4C738.881 94 738.431 92.9167 737.531 92.15C736.631 91.35 735.298 90.95 733.531 90.95C731.765 90.95 730.431 91.35 729.531 92.15C728.631 92.9167 728.181 94 728.181 95.4V96.4C728.181 97.7667 728.631 98.85 729.531 99.65C730.465 100.45 731.798 100.85 733.531 100.85ZM733.531 85.45C735.198 85.45 736.465 85.0667 737.331 84.3C738.198 83.5333 738.631 82.5 738.631 81.2V80.45C738.631 79.15 738.181 78.1334 737.281 77.4C736.415 76.6334 735.165 76.25 733.531 76.25C731.898 76.25 730.631 76.6334 729.731 77.4C728.865 78.1334 728.431 79.15 728.431 80.45V81.2C728.431 82.5 728.865 83.5333 729.731 84.3C730.598 85.0667 731.865 85.45 733.531 85.45Z" fill="black"/>
<path d="M836.573 84.35C836.573 86.8167 836.189 89.1334 835.423 91.3C834.656 93.4667 833.656 95.4833 832.423 97.35C831.223 99.1833 829.856 100.833 828.323 102.3C826.823 103.767 825.323 105 823.823 106H813.473C815.639 104.5 817.573 103.067 819.273 101.7C821.006 100.3 822.506 98.9167 823.773 97.55C825.073 96.15 826.123 94.7167 826.923 93.25C827.756 91.7833 828.356 90.2 828.723 88.5L828.273 88.35C827.973 89.0167 827.589 89.6667 827.123 90.3C826.689 90.9333 826.156 91.5 825.523 92C824.923 92.4667 824.189 92.85 823.323 93.15C822.489 93.45 821.506 93.6 820.373 93.6C818.906 93.6 817.539 93.35 816.273 92.85C815.006 92.3167 813.906 91.5834 812.973 90.65C812.073 89.6833 811.356 88.5333 810.823 87.2C810.289 85.8667 810.023 84.3667 810.023 82.7C810.023 80.9333 810.339 79.3 810.973 77.8C811.606 76.3 812.489 75.0167 813.623 73.95C814.789 72.85 816.189 72 817.823 71.4C819.456 70.8 821.273 70.5 823.273 70.5C825.373 70.5 827.239 70.8333 828.873 71.5C830.539 72.1334 831.939 73.0667 833.073 74.3C834.206 75.5 835.073 76.95 835.673 78.65C836.273 80.35 836.573 82.25 836.573 84.35ZM823.323 87.85C825.023 87.85 826.356 87.4 827.323 86.5C828.289 85.5667 828.773 84.2333 828.773 82.5V81.8C828.773 80.0667 828.306 78.7333 827.373 77.8C826.473 76.8333 825.123 76.35 823.323 76.35C821.523 76.35 820.156 76.8333 819.223 77.8C818.289 78.7333 817.823 80.0667 817.823 81.8V82.5C817.823 84.2333 818.289 85.5667 819.223 86.5C820.189 87.4 821.556 87.85 823.323 87.85Z" fill="black"/>
<path d="M913.414 106.6C908.747 106.6 905.297 105.017 903.064 101.85C900.864 98.6833 899.764 94.25 899.764 88.55C899.764 82.85 900.864 78.4167 903.064 75.25C905.297 72.0833 908.747 70.5 913.414 70.5C918.081 70.5 921.514 72.0833 923.714 75.25C925.947 78.4167 927.064 82.85 927.064 88.55C927.064 94.25 925.947 98.6833 923.714 101.85C921.514 105.017 918.081 106.6 913.414 106.6ZM913.414 100.7C915.647 100.7 917.197 99.9167 918.064 98.35C918.964 96.7833 919.414 94.6 919.414 91.8V85.3C919.414 82.5 918.964 80.3167 918.064 78.75C917.197 77.1833 915.647 76.4 913.414 76.4C911.181 76.4 909.614 77.1833 908.714 78.75C907.847 80.3167 907.414 82.5 907.414 85.3V91.8C907.414 94.6 907.847 96.7833 908.714 98.35C909.614 99.9167 911.181 100.7 913.414 100.7ZM913.414 91.5C912.247 91.5 911.431 91.2667 910.964 90.8C910.531 90.3333 910.314 89.7667 910.314 89.1V88C910.314 87.3333 910.531 86.7667 910.964 86.3C911.431 85.8333 912.247 85.6 913.414 85.6C914.581 85.6 915.381 85.8333 915.814 86.3C916.281 86.7667 916.514 87.3333 916.514 88V89.1C916.514 89.7667 916.281 90.3333 915.814 90.8C915.381 91.2667 914.581 91.5 913.414 91.5Z" fill="black"/>
<path d="M995.355 94.3V87.2H1011.36V94.3H995.355Z" fill="black"/>
<path d="M2.10002 152.95V147.05H25.9V152.95H2.10002ZM2.10002 164.45V158.55H25.9V164.45H2.10002Z" fill="black"/>
<path d="M108.591 166.3H108.241C107.575 167.867 106.641 169.15 105.441 170.15C104.275 171.117 102.658 171.6 100.591 171.6C99.1581 171.6 97.8414 171.333 96.6414 170.8C95.4748 170.267 94.4581 169.45 93.5914 168.35C92.7581 167.25 92.0914 165.85 91.5914 164.15C91.1248 162.45 90.8914 160.433 90.8914 158.1C90.8914 155.767 91.1248 153.75 91.5914 152.05C92.0914 150.35 92.7581 148.95 93.5914 147.85C94.4581 146.75 95.4748 145.933 96.6414 145.4C97.8414 144.867 99.1581 144.6 100.591 144.6C101.625 144.6 102.541 144.733 103.341 145C104.141 145.267 104.841 145.633 105.441 146.1C106.075 146.567 106.608 147.133 107.041 147.8C107.508 148.433 107.908 149.133 108.241 149.9H108.591V145.2H115.991V181H108.591V166.3ZM103.791 165.85C105.091 165.85 106.208 165.533 107.141 164.9C108.108 164.267 108.591 163.267 108.591 161.9V154.3C108.591 152.933 108.108 151.933 107.141 151.3C106.208 150.667 105.091 150.35 103.791 150.35C102.125 150.35 100.841 150.867 99.9414 151.9C99.0414 152.9 98.5914 154.3 98.5914 156.1V160.1C98.5914 161.9 99.0414 163.317 99.9414 164.35C100.841 165.35 102.125 165.85 103.791 165.85Z" fill="black"/>
<path d="M179.233 145.2H185.383L187.233 166.1H187.733L190.783 145.2H197.283L200.283 166.1H200.783L202.683 145.2H208.533L205.483 171H196.683L194.133 153.2H193.633L191.083 171H182.283L179.233 145.2Z" fill="black"/>
<path d="M284.524 171.6C280.191 171.6 276.908 170.4 274.674 168C272.441 165.6 271.324 162.333 271.324 158.2C271.324 156.1 271.608 154.217 272.174 152.55C272.774 150.85 273.608 149.417 274.674 148.25C275.774 147.05 277.091 146.15 278.624 145.55C280.191 144.917 281.941 144.6 283.874 144.6C285.808 144.6 287.541 144.917 289.074 145.55C290.608 146.15 291.908 147.017 292.974 148.15C294.041 149.283 294.858 150.667 295.424 152.3C296.024 153.9 296.324 155.7 296.324 157.7V159.9H278.674V160.35C278.674 162.017 279.191 163.367 280.224 164.4C281.258 165.4 282.774 165.9 284.774 165.9C286.308 165.9 287.624 165.617 288.724 165.05C289.824 164.45 290.774 163.667 291.574 162.7L295.574 167.05C294.574 168.283 293.174 169.35 291.374 170.25C289.574 171.15 287.291 171.6 284.524 171.6ZM283.924 149.9C282.324 149.9 281.041 150.4 280.074 151.4C279.141 152.367 278.674 153.683 278.674 155.35V155.75H289.074V155.35C289.074 153.65 288.608 152.317 287.674 151.35C286.774 150.383 285.524 149.9 283.924 149.9Z" fill="black"/>
<path d="M362.466 165.25H368.416V150.95H362.466V145.2H375.816V152.5H376.166C376.399 151.567 376.716 150.667 377.116 149.8C377.549 148.9 378.082 148.117 378.716 147.45C379.382 146.75 380.182 146.2 381.116 145.8C382.049 145.4 383.149 145.2 384.416 145.2H386.866V152H381.366C379.532 152 378.149 152.55 377.216 153.65C376.282 154.717 375.816 156.033 375.816 157.6V165.25H384.316V171H362.466V165.25Z" fill="black"/>
<path d="M465.707 171C463.04 171 461.057 170.3 459.757 168.9C458.457 167.5 457.807 165.717 457.807 163.55V150.95H450.807V145.2H455.357C456.457 145.2 457.24 144.983 457.707 144.55C458.174 144.117 458.407 143.317 458.407 142.15V136.1H465.207V145.2H475.257V150.95H465.207V165.25H475.257V171H465.707Z" fill="black"/>
<path d="M560.148 145.2H567.698L555.548 175.15C554.782 177.05 553.765 178.5 552.498 179.5C551.232 180.5 549.498 181 547.298 181H542.198V175.25H548.398L549.998 170.85L539.598 145.2H547.548L551.298 156.05L553.648 163.55H554.048L556.298 156.05L560.148 145.2Z" fill="black"/>
<path d="M647.94 166.3H647.64C647.073 167.767 646.173 169.017 644.94 170.05C643.74 171.083 642.107 171.6 640.04 171.6C638.807 171.6 637.673 171.4 636.64 171C635.607 170.567 634.723 169.933 633.99 169.1C633.257 168.267 632.673 167.25 632.24 166.05C631.84 164.85 631.64 163.467 631.64 161.9V145.2H639.04V160.9C639.04 164.233 640.49 165.9 643.39 165.9C643.957 165.9 644.507 165.833 645.04 165.7C645.607 165.533 646.09 165.3 646.49 165C646.923 164.667 647.273 164.267 647.54 163.8C647.807 163.333 647.94 162.783 647.94 162.15V145.2H655.34V171H647.94V166.3Z" fill="black"/>
<path d="M735.131 141.9C733.465 141.9 732.298 141.567 731.631 140.9C730.998 140.2 730.681 139.367 730.681 138.4V136.95C730.681 135.95 730.998 135.117 731.631 134.45C732.298 133.783 733.465 133.45 735.131 133.45C736.798 133.45 737.948 133.783 738.581 134.45C739.248 135.117 739.581 135.95 739.581 136.95V138.4C739.581 139.367 739.248 140.2 738.581 140.9C737.948 141.567 736.798 141.9 735.131 141.9ZM723.231 165.25H731.431V150.95H723.231V145.2H738.831V165.25H746.431V171H723.231V165.25Z" fill="black"/>
<path d="M823.473 171.6C821.473 171.6 819.673 171.3 818.073 170.7C816.473 170.067 815.106 169.167 813.973 168C812.873 166.833 812.023 165.417 811.423 163.75C810.823 162.083 810.523 160.2 810.523 158.1C810.523 156 810.823 154.117 811.423 152.45C812.023 150.783 812.873 149.367 813.973 148.2C815.106 147.033 816.473 146.15 818.073 145.55C819.673 144.917 821.473 144.6 823.473 144.6C825.473 144.6 827.273 144.917 828.873 145.55C830.473 146.15 831.823 147.033 832.923 148.2C834.056 149.367 834.923 150.783 835.523 152.45C836.123 154.117 836.423 156 836.423 158.1C836.423 160.2 836.123 162.083 835.523 163.75C834.923 165.417 834.056 166.833 832.923 168C831.823 169.167 830.473 170.067 828.873 170.7C827.273 171.3 825.473 171.6 823.473 171.6ZM823.473 166.1C825.139 166.1 826.439 165.583 827.373 164.55C828.306 163.517 828.773 162.05 828.773 160.15V156.05C828.773 154.15 828.306 152.683 827.373 151.65C826.439 150.617 825.139 150.1 823.473 150.1C821.806 150.1 820.506 150.617 819.573 151.65C818.639 152.683 818.173 154.15 818.173 156.05V160.15C818.173 162.05 818.639 163.517 819.573 164.55C820.506 165.583 821.806 166.1 823.473 166.1Z" fill="black"/>
<path d="M901.364 145.2H908.764V149.9H909.114C909.747 148.367 910.664 147.1 911.864 146.1C913.064 145.1 914.697 144.6 916.764 144.6C918.197 144.6 919.497 144.867 920.664 145.4C921.864 145.933 922.881 146.75 923.714 147.85C924.581 148.95 925.247 150.35 925.714 152.05C926.214 153.75 926.464 155.767 926.464 158.1C926.464 160.433 926.214 162.45 925.714 164.15C925.247 165.85 924.581 167.25 923.714 168.35C922.881 169.45 921.864 170.267 920.664 170.8C919.497 171.333 918.197 171.6 916.764 171.6C914.697 171.6 913.064 171.117 911.864 170.15C910.664 169.15 909.747 167.867 909.114 166.3H908.764V181H901.364V145.2ZM913.564 165.85C915.231 165.85 916.514 165.35 917.414 164.35C918.314 163.317 918.764 161.9 918.764 160.1V156.1C918.764 154.3 918.314 152.9 917.414 151.9C916.514 150.867 915.231 150.35 913.564 150.35C912.264 150.35 911.131 150.667 910.164 151.3C909.231 151.933 908.764 152.933 908.764 154.3V161.9C908.764 163.267 909.231 164.267 910.164 164.9C911.131 165.533 912.264 165.85 913.564 165.85Z" fill="black"/>
<path d="M997.505 177.9V133H1013.71V137.95H1003.46V172.95H1013.71V177.9H997.505Z" fill="black"/>
<path d="M19.85 198V242.9H3.65002V237.95H13.9V202.95H3.65002V198H19.85Z" fill="black"/>
<path d="M113.291 236C111.758 236 110.525 235.617 109.591 234.85C108.658 234.05 108.108 232.917 107.941 231.45H107.691C107.225 233.15 106.291 234.433 104.891 235.3C103.525 236.167 101.841 236.6 99.8414 236.6C97.3414 236.6 95.3248 235.933 93.7914 234.6C92.2914 233.233 91.5414 231.333 91.5414 228.9C91.5414 226.2 92.5248 224.2 94.4914 222.9C96.4581 221.6 99.3414 220.95 103.141 220.95H107.291V219.65C107.291 218.117 106.925 216.967 106.191 216.2C105.491 215.4 104.291 215 102.591 215C101.025 215 99.7581 215.3 98.7914 215.9C97.8248 216.5 96.9914 217.283 96.2914 218.25L92.2414 214.65C93.1081 213.183 94.4581 211.983 96.2914 211.05C98.1581 210.083 100.541 209.6 103.441 209.6C106.975 209.6 109.725 210.417 111.691 212.05C113.691 213.65 114.691 216.083 114.691 219.35V230.65H117.541V236H113.291ZM102.641 231.75C103.941 231.75 105.041 231.433 105.941 230.8C106.841 230.167 107.291 229.25 107.291 228.05V224.95H103.341C100.308 224.95 98.7914 225.967 98.7914 228V229C98.7914 229.9 99.1414 230.583 99.8414 231.05C100.541 231.517 101.475 231.75 102.641 231.75Z" fill="black"/>
<path d="M193.583 236.6C190.716 236.6 188.216 236.167 186.083 235.3C183.983 234.433 182.4 233.25 181.333 231.75L185.483 227.9C186.483 229 187.65 229.867 188.983 230.5C190.35 231.1 191.9 231.4 193.633 231.4C195.1 231.4 196.25 231.183 197.083 230.75C197.916 230.283 198.333 229.583 198.333 228.65C198.333 227.917 198.05 227.417 197.483 227.15C196.916 226.85 196.133 226.617 195.133 226.45L190.983 225.8C189.816 225.633 188.733 225.383 187.733 225.05C186.733 224.683 185.866 224.2 185.133 223.6C184.4 223 183.816 222.267 183.383 221.4C182.95 220.533 182.733 219.483 182.733 218.25C182.733 215.55 183.766 213.433 185.833 211.9C187.9 210.367 190.8 209.6 194.533 209.6C197.066 209.6 199.216 209.95 200.983 210.65C202.783 211.317 204.216 212.283 205.283 213.55L201.583 217.75C200.816 216.917 199.833 216.217 198.633 215.65C197.433 215.083 195.983 214.8 194.283 214.8C191.416 214.8 189.983 215.667 189.983 217.4C189.983 218.167 190.266 218.7 190.833 219C191.4 219.267 192.183 219.483 193.183 219.65L197.283 220.3C198.45 220.467 199.533 220.733 200.533 221.1C201.533 221.433 202.4 221.9 203.133 222.5C203.9 223.1 204.499 223.833 204.933 224.7C205.366 225.567 205.583 226.617 205.583 227.85C205.583 230.55 204.533 232.683 202.433 234.25C200.366 235.817 197.416 236.6 193.583 236.6Z" fill="black"/>
<path d="M288.474 231.3H288.124C287.458 232.867 286.524 234.15 285.324 235.15C284.158 236.117 282.541 236.6 280.474 236.6C279.041 236.6 277.724 236.333 276.524 235.8C275.358 235.267 274.341 234.45 273.474 233.35C272.641 232.25 271.974 230.85 271.474 229.15C271.008 227.45 270.774 225.433 270.774 223.1C270.774 220.767 271.008 218.75 271.474 217.05C271.974 215.35 272.641 213.95 273.474 212.85C274.341 211.75 275.358 210.933 276.524 210.4C277.724 209.867 279.041 209.6 280.474 209.6C281.508 209.6 282.424 209.733 283.224 210C284.024 210.267 284.724 210.633 285.324 211.1C285.958 211.567 286.491 212.133 286.924 212.8C287.391 213.433 287.791 214.133 288.124 214.9H288.474V199H295.874V236H288.474V231.3ZM283.674 230.85C284.974 230.85 286.091 230.533 287.024 229.9C287.991 229.267 288.474 228.267 288.474 226.9V219.3C288.474 217.933 287.991 216.933 287.024 216.3C286.091 215.667 284.974 215.35 283.674 215.35C282.008 215.35 280.724 215.867 279.824 216.9C278.924 217.9 278.474 219.3 278.474 221.1V225.1C278.474 226.9 278.924 228.317 279.824 229.35C280.724 230.35 282.008 230.85 283.674 230.85Z" fill="black"/>
<path d="M362.316 230.25H369.916V215.95H361.816V210.2H369.916V206.45C369.916 204.25 370.549 202.467 371.816 201.1C373.116 199.7 375.116 199 377.816 199H386.566V204.75H377.316V210.2H386.566V215.95H377.316V230.25H385.416V236H362.316V230.25Z" fill="black"/>
<path d="M477.857 238.6C477.857 241.333 476.707 243.35 474.407 244.65C472.107 245.95 468.49 246.6 463.557 246.6C461.09 246.6 459.057 246.45 457.457 246.15C455.857 245.883 454.574 245.483 453.607 244.95C452.674 244.417 452.007 243.783 451.607 243.05C451.24 242.317 451.057 241.517 451.057 240.65C451.057 239.183 451.49 238.067 452.357 237.3C453.224 236.567 454.44 236 456.007 235.6V235.3C454.907 234.967 454.024 234.5 453.357 233.9C452.724 233.267 452.407 232.383 452.407 231.25C452.407 229.983 452.824 229.05 453.657 228.45C454.524 227.85 455.657 227.383 457.057 227.05V226.75C455.524 226.017 454.324 224.983 453.457 223.65C452.624 222.317 452.207 220.7 452.207 218.8C452.207 217.3 452.474 215.983 453.007 214.85C453.54 213.683 454.29 212.717 455.257 211.95C456.257 211.183 457.44 210.6 458.807 210.2C460.174 209.8 461.707 209.6 463.407 209.6C465.04 209.6 466.557 209.783 467.957 210.15V208.75C467.957 207.75 468.307 206.917 469.007 206.25C469.707 205.583 470.674 205.25 471.907 205.25H476.457V210.65H470.257V211.1C471.657 211.833 472.74 212.85 473.507 214.15C474.307 215.417 474.707 216.967 474.707 218.8C474.707 220.3 474.44 221.617 473.907 222.75C473.374 223.883 472.607 224.85 471.607 225.65C470.607 226.417 469.407 227 468.007 227.4C466.64 227.8 465.107 228 463.407 228C462.64 228 461.907 227.967 461.207 227.9C460.507 227.8 459.84 227.667 459.207 227.5C458.84 227.7 458.524 227.95 458.257 228.25C458.024 228.55 457.907 228.933 457.907 229.4C457.907 229.8 458.007 230.117 458.207 230.35C458.407 230.583 458.674 230.767 459.007 230.9C459.374 231 459.79 231.067 460.257 231.1C460.724 231.133 461.207 231.15 461.707 231.15H467.607C469.44 231.15 471.007 231.333 472.307 231.7C473.607 232.067 474.674 232.583 475.507 233.25C476.34 233.917 476.94 234.7 477.307 235.6C477.674 236.5 477.857 237.5 477.857 238.6ZM470.857 239.15C470.857 238.483 470.59 237.95 470.057 237.55C469.524 237.183 468.507 237 467.007 237H458.157C457.49 237.567 457.157 238.267 457.157 239.1C457.157 239.9 457.49 240.55 458.157 241.05C458.857 241.583 460.024 241.85 461.657 241.85H466.007C467.707 241.85 468.94 241.617 469.707 241.15C470.474 240.683 470.857 240.017 470.857 239.15ZM463.407 223.3C464.907 223.3 465.99 222.933 466.657 222.2C467.357 221.467 467.707 220.533 467.707 219.4V218.2C467.707 217.067 467.357 216.133 466.657 215.4C465.99 214.667 464.907 214.3 463.407 214.3C461.94 214.3 460.874 214.667 460.207 215.4C459.54 216.133 459.207 217.067 459.207 218.2V219.4C459.207 220.533 459.54 221.467 460.207 222.2C460.874 222.933 461.94 223.3 463.407 223.3Z" fill="black"/>
<path d="M541.898 199H549.298V214.9H549.598C549.898 214.167 550.265 213.483 550.698 212.85C551.132 212.217 551.648 211.667 552.248 211.2C552.882 210.7 553.598 210.317 554.398 210.05C555.232 209.75 556.165 209.6 557.198 209.6C558.432 209.6 559.565 209.817 560.598 210.25C561.632 210.65 562.515 211.267 563.248 212.1C563.982 212.933 564.548 213.95 564.948 215.15C565.382 216.35 565.598 217.733 565.598 219.3V236H558.198V220.3C558.198 216.967 556.748 215.3 553.848 215.3C553.282 215.3 552.715 215.383 552.148 215.55C551.615 215.683 551.132 215.917 550.698 216.25C550.265 216.55 549.915 216.933 549.648 217.4C549.415 217.867 549.298 218.417 549.298 219.05V236H541.898V199Z" fill="black"/>
<path d="M633.19 240.25H643.09V215.95H633.09V210.2H650.49V238.55C650.49 240.717 649.84 242.5 648.54 243.9C647.24 245.3 645.273 246 642.64 246H633.19V240.25ZM646.79 206.9C645.123 206.9 643.957 206.567 643.29 205.9C642.657 205.2 642.34 204.367 642.34 203.4V201.95C642.34 200.95 642.657 200.117 643.29 199.45C643.957 198.783 645.123 198.45 646.79 198.45C648.423 198.45 649.573 198.783 650.24 199.45C650.907 200.117 651.24 200.95 651.24 201.95V203.4C651.24 204.367 650.907 205.2 650.24 205.9C649.573 206.567 648.423 206.9 646.79 206.9Z" fill="black"/>
<path d="M721.781 199H729.181V220H729.531L732.981 215.95L738.381 210.2H746.881L736.881 220.4L747.931 236H739.131L731.631 224.6L729.181 227.05V236H721.781V199Z" fill="black"/>
<path d="M811.873 230.25H819.773V204.75H811.873V199H827.173V230.25H835.073V236H811.873V230.25Z" fill="black"/>
<path d="M909.764 227.3H919.264L912.414 243.55H906.914L909.764 227.3ZM913.414 219.65C911.547 219.65 910.197 219.25 909.364 218.45C908.564 217.617 908.164 216.633 908.164 215.5V213.75C908.164 212.617 908.564 211.65 909.364 210.85C910.197 210.017 911.547 209.6 913.414 209.6C915.281 209.6 916.614 210.017 917.414 210.85C918.247 211.65 918.664 212.617 918.664 213.75V215.5C918.664 216.633 918.247 217.617 917.414 218.45C916.614 219.25 915.281 219.65 913.414 219.65Z" fill="black"/>
<path d="M991.656 236V229.85L1006.01 215.95H992.156V210.2H1014.56V216.35L1000.21 230.25H1015.06V236H991.656Z" fill="black"/>
<path d="M0.150024 301L9.80002 287.9L0.800024 275.2H9.25002L12 279.35L14.1 282.7H14.5L16.65 279.35L19.45 275.2H27.2L18.2 287.5L27.85 301H19.35L16.1 296.15L13.85 292.7H13.45L11.25 296.15L7.95002 301H0.150024Z" fill="black"/>
<path d="M104.991 301.6C102.958 301.6 101.125 301.3 99.4914 300.7C97.8914 300.067 96.5248 299.167 95.3914 298C94.2914 296.833 93.4414 295.417 92.8414 293.75C92.2414 292.083 91.9414 290.2 91.9414 288.1C91.9414 286 92.2414 284.117 92.8414 282.45C93.4414 280.783 94.2914 279.367 95.3914 278.2C96.5248 277.033 97.8914 276.15 99.4914 275.55C101.125 274.917 102.941 274.6 104.941 274.6C107.775 274.6 110.041 275.183 111.741 276.35C113.475 277.483 114.791 279 115.691 280.9L109.991 284C109.525 283 108.908 282.167 108.141 281.5C107.408 280.833 106.341 280.5 104.941 280.5C103.241 280.5 101.925 281 100.991 282C100.091 282.967 99.6414 284.3 99.6414 286V290.2C99.6414 291.9 100.091 293.25 100.991 294.25C101.925 295.217 103.275 295.7 105.041 295.7C106.475 295.7 107.591 295.367 108.391 294.7C109.225 294.033 109.925 293.167 110.491 292.1L116.091 295.3C115.158 297.2 113.791 298.733 111.991 299.9C110.225 301.033 107.891 301.6 104.991 301.6Z" fill="black"/>
<path d="M189.483 301L180.233 275.2H188.033L191.383 286.25L193.833 294.85H194.233L196.683 286.25L200.033 275.2H207.533L198.283 301H189.483Z" fill="black"/>
<path d="M271.774 264H279.174V279.9H279.524C280.158 278.367 281.074 277.1 282.274 276.1C283.474 275.1 285.108 274.6 287.174 274.6C288.608 274.6 289.908 274.867 291.074 275.4C292.274 275.933 293.291 276.75 294.124 277.85C294.991 278.95 295.658 280.35 296.124 282.05C296.624 283.75 296.874 285.767 296.874 288.1C296.874 290.433 296.624 292.45 296.124 294.15C295.658 295.85 294.991 297.25 294.124 298.35C293.291 299.45 292.274 300.267 291.074 300.8C289.908 301.333 288.608 301.6 287.174 301.6C285.108 301.6 283.474 301.117 282.274 300.15C281.074 299.15 280.158 297.867 279.524 296.3H279.174V301H271.774V264ZM283.974 295.85C285.641 295.85 286.924 295.35 287.824 294.35C288.724 293.317 289.174 291.9 289.174 290.1V286.1C289.174 284.3 288.724 282.9 287.824 281.9C286.924 280.867 285.641 280.35 283.974 280.35C282.674 280.35 281.541 280.667 280.574 281.3C279.641 281.933 279.174 282.933 279.174 284.3V291.9C279.174 293.267 279.641 294.267 280.574 294.9C281.541 295.533 282.674 295.85 283.974 295.85Z" fill="black"/>
<path d="M362.016 301V275.2H369.416V279.9H369.716C370.016 279.167 370.382 278.483 370.816 277.85C371.249 277.217 371.766 276.667 372.366 276.2C372.999 275.7 373.716 275.317 374.516 275.05C375.349 274.75 376.282 274.6 377.316 274.6C378.549 274.6 379.682 274.817 380.716 275.25C381.749 275.65 382.632 276.267 383.366 277.1C384.099 277.933 384.666 278.95 385.066 280.15C385.499 281.35 385.716 282.733 385.716 284.3V301H378.316V285.3C378.316 281.967 376.866 280.3 373.966 280.3C373.399 280.3 372.832 280.383 372.266 280.55C371.732 280.683 371.249 280.917 370.816 281.25C370.382 281.55 370.032 281.933 369.766 282.4C369.532 282.867 369.416 283.417 369.416 284.05V301H362.016Z" fill="black"/>
<path d="M450.207 301V275.2H456.157V279H456.507C456.907 277.8 457.474 276.767 458.207 275.9C458.974 275.033 460.04 274.6 461.407 274.6C463.907 274.6 465.44 276.067 466.007 279H466.307C466.507 278.4 466.757 277.833 467.057 277.3C467.357 276.767 467.724 276.3 468.157 275.9C468.59 275.5 469.107 275.183 469.707 274.95C470.307 274.717 471.007 274.6 471.807 274.6C475.407 274.6 477.207 277.25 477.207 282.55V301H471.257V283.3C471.257 282.1 471.04 281.267 470.607 280.8C470.207 280.3 469.674 280.05 469.007 280.05C468.374 280.05 467.824 280.267 467.357 280.7C466.924 281.1 466.707 281.733 466.707 282.6V301H460.707V283.3C460.707 282.1 460.507 281.267 460.107 280.8C459.74 280.3 459.224 280.05 458.557 280.05C457.89 280.05 457.324 280.267 456.857 280.7C456.39 281.1 456.157 281.733 456.157 282.6V301H450.207Z" fill="black"/>
<path d="M549.998 292.3H559.498L552.648 308.55H547.148L549.998 292.3Z" fill="black"/>
<path d="M643.59 301.6C641.723 301.6 640.373 301.2 639.54 300.4C638.74 299.567 638.34 298.583 638.34 297.45V295.7C638.34 294.567 638.74 293.6 639.54 292.8C640.373 291.967 641.723 291.55 643.59 291.55C645.457 291.55 646.79 291.967 647.59 292.8C648.423 293.6 648.84 294.567 648.84 295.7V297.45C648.84 298.583 648.423 299.567 647.59 300.4C646.79 301.2 645.457 301.6 643.59 301.6Z" fill="black"/>
<path d="M728.931 289.35V281.7C731.431 281.6 733.415 281.167 734.881 280.4C736.348 279.633 737.081 278.3 737.081 276.4V275.7C737.081 274.3 736.665 273.3 735.831 272.7C735.031 272.1 734.031 271.8 732.831 271.8C731.465 271.8 730.348 272.2 729.481 273C728.615 273.767 728.015 274.783 727.681 276.05L721.581 273.5C721.881 272.5 722.315 271.533 722.881 270.6C723.481 269.633 724.248 268.783 725.181 268.05C726.115 267.283 727.231 266.667 728.531 266.2C729.831 265.733 731.348 265.5 733.081 265.5C734.848 265.5 736.448 265.75 737.881 266.25C739.348 266.75 740.598 267.45 741.631 268.35C742.665 269.25 743.465 270.333 744.031 271.6C744.598 272.867 744.881 274.25 744.881 275.75C744.881 277.15 744.631 278.433 744.131 279.6C743.665 280.733 743.015 281.733 742.181 282.6C741.381 283.433 740.431 284.117 739.331 284.65C738.265 285.183 737.131 285.55 735.931 285.75V289.35H728.931ZM732.531 301.6C730.765 301.6 729.498 301.217 728.731 300.45C727.998 299.683 727.631 298.767 727.631 297.7V296.1C727.631 295.033 727.998 294.133 728.731 293.4C729.498 292.633 730.765 292.25 732.531 292.25C734.298 292.25 735.565 292.633 736.331 293.4C737.098 294.167 737.481 295.067 737.481 296.1V297.7C737.481 298.767 737.098 299.683 736.331 300.45C735.598 301.217 734.331 301.6 732.531 301.6Z" fill="black"/>
<path d="M834.773 310.55H827.673C824.973 310.55 823.056 309.9 821.923 308.6C820.789 307.3 820.223 305.55 820.223 303.35V301.3C816.656 300.6 814.023 298.733 812.323 295.7C810.656 292.633 809.823 288.583 809.823 283.55C809.823 277.85 810.923 273.417 813.123 270.25C815.356 267.083 818.806 265.5 823.473 265.5C828.139 265.5 831.573 267.083 833.773 270.25C836.006 273.417 837.123 277.85 837.123 283.55C837.123 288.583 836.273 292.633 834.573 295.7C832.906 298.733 830.289 300.6 826.723 301.3V305.2H834.773V310.55ZM823.473 295.55C825.606 295.55 827.073 294.767 827.873 293.2C828.706 291.6 829.123 289.383 829.123 286.55V280.5C829.123 277.7 828.706 275.517 827.873 273.95C827.073 272.35 825.606 271.55 823.473 271.55C821.339 271.55 819.856 272.35 819.023 273.95C818.223 275.517 817.823 277.7 817.823 280.5V286.6C817.823 289.4 818.223 291.6 819.023 293.2C819.856 294.767 821.339 295.55 823.473 295.55Z" fill="black"/>
<path d="M901.114 301L898.964 266.1H905.414L906.414 287L906.714 293.6H907.164L910.164 273.7H916.914L919.914 293.6H920.364L921.664 266.1H927.864L925.714 301H916.214L913.664 281.75H913.164L910.614 301H901.114Z" fill="black"/>
<path d="M992.355 301V266.1H1014.66V272.25H999.855V280.25H1014.16V286.4H999.855V294.85H1014.66V301H992.355Z" fill="black"/>
<path d="M10.2 366H2.80002V331.1H16.3C18 331.1 19.5167 331.367 20.85 331.9C22.1834 332.4 23.3 333.133 24.2 334.1C25.1334 335.067 25.8334 336.233 26.3 337.6C26.7667 338.967 27 340.5 27 342.2C27 344.667 26.4667 346.783 25.4 348.55C24.3334 350.317 22.8167 351.483 20.85 352.05L27.7 366H19.5L13.65 353.05H10.2V366ZM14.5 347.25C16.2667 347.25 17.4834 346.917 18.15 346.25C18.85 345.583 19.2 344.483 19.2 342.95V341.45C19.2 339.917 18.85 338.817 18.15 338.15C17.4834 337.483 16.2667 337.15 14.5 337.15H10.2V347.25H14.5Z" fill="black"/>
<path d="M107.691 337.25V366H100.191V337.25H90.1414V331.1H117.741V337.25H107.691Z" fill="black"/>
<path d="M190.133 366V353.65L179.083 331.1H187.433L191.133 339.2L193.833 346.05H194.233L196.933 339.2L200.633 331.1H208.683L197.633 353.65V366H190.133Z" fill="black"/>
<path d="M279.074 331.1V353.2C279.074 354.3 279.108 355.317 279.174 356.25C279.274 357.15 279.474 357.917 279.774 358.55C280.108 359.183 280.591 359.683 281.224 360.05C281.858 360.383 282.724 360.55 283.824 360.55C284.924 360.55 285.791 360.383 286.424 360.05C287.058 359.683 287.524 359.183 287.824 358.55C288.158 357.917 288.358 357.15 288.424 356.25C288.524 355.317 288.574 354.3 288.574 353.2V331.1H296.074V352.2C296.074 354.6 295.908 356.7 295.574 358.5C295.274 360.3 294.674 361.8 293.774 363C292.874 364.2 291.624 365.1 290.024 365.7C288.424 366.3 286.358 366.6 283.824 366.6C281.291 366.6 279.224 366.3 277.624 365.7C276.024 365.1 274.774 364.2 273.874 363C272.974 361.8 272.358 360.3 272.024 358.5C271.724 356.7 271.574 354.6 271.574 352.2V331.1H279.074Z" fill="black"/>
<path d="M362.516 366V360.45H370.016V336.65H362.516V331.1H385.016V336.65H377.516V360.45H385.016V366H362.516Z" fill="black"/>
<path d="M463.707 366.6C459.04 366.6 455.59 365.017 453.357 361.85C451.157 358.683 450.057 354.25 450.057 348.55C450.057 342.85 451.157 338.417 453.357 335.25C455.59 332.083 459.04 330.5 463.707 330.5C468.374 330.5 471.807 332.083 474.007 335.25C476.24 338.417 477.357 342.85 477.357 348.55C477.357 354.25 476.24 358.683 474.007 361.85C471.807 365.017 468.374 366.6 463.707 366.6ZM463.707 360.55C465.84 360.55 467.307 359.767 468.107 358.2C468.94 356.6 469.357 354.383 469.357 351.55V345.5C469.357 342.7 468.94 340.517 468.107 338.95C467.307 337.35 465.84 336.55 463.707 336.55C461.574 336.55 460.09 337.35 459.257 338.95C458.457 340.517 458.057 342.7 458.057 345.5V351.6C458.057 354.4 458.457 356.6 459.257 358.2C460.09 359.767 461.574 360.55 463.707 360.55Z" fill="black"/>
<path d="M542.448 366V331.1H555.948C557.648 331.1 559.165 331.367 560.498 331.9C561.832 332.4 562.948 333.133 563.848 334.1C564.782 335.067 565.482 336.233 565.948 337.6C566.415 338.967 566.648 340.5 566.648 342.2C566.648 343.9 566.415 345.433 565.948 346.8C565.482 348.167 564.782 349.333 563.848 350.3C562.948 351.267 561.832 352.017 560.498 352.55C559.165 353.05 557.648 353.3 555.948 353.3H549.998V366H542.448ZM549.998 347.25H554.048C555.815 347.25 557.032 346.917 557.698 346.25C558.398 345.583 558.748 344.483 558.748 342.95V341.45C558.748 339.917 558.398 338.817 557.698 338.15C557.032 337.483 555.815 337.15 554.048 337.15H549.998V347.25Z" fill="black"/>
<path d="M645.09 372.9C642.823 372.9 641.207 372.383 640.24 371.35C639.273 370.35 638.79 369.067 638.79 367.5V365.25C638.79 364.417 638.873 363.683 639.04 363.05C639.24 362.417 639.473 361.85 639.74 361.35C640.007 360.85 640.307 360.417 640.64 360.05C640.973 359.65 641.29 359.267 641.59 358.9C642.157 358.233 642.54 357.667 642.74 357.2C642.973 356.7 643.09 356.183 643.09 355.65C643.09 354.783 642.64 354.117 641.74 353.65C640.84 353.183 639.49 352.95 637.69 352.95H633.19V347.95H637.69C639.49 347.95 640.84 347.717 641.74 347.25C642.64 346.783 643.09 346.117 643.09 345.25C643.09 344.717 642.973 344.217 642.74 343.75C642.54 343.25 642.157 342.667 641.59 342C641.29 341.667 640.973 341.3 640.64 340.9C640.307 340.5 640.007 340.05 639.74 339.55C639.473 339.05 639.24 338.483 639.04 337.85C638.873 337.217 638.79 336.483 638.79 335.65V333.4C638.79 331.833 639.273 330.55 640.24 329.55C641.207 328.517 642.823 328 645.09 328H653.99V332.95H644.74V335.35C644.74 336.617 644.94 337.583 645.34 338.25C645.773 338.917 646.24 339.583 646.74 340.25C647.307 340.95 647.84 341.7 648.34 342.5C648.84 343.3 649.09 344.233 649.09 345.3C649.09 346.7 648.607 347.817 647.64 348.65C646.673 349.483 645.19 350.017 643.19 350.25V350.65C645.19 350.883 646.673 351.417 647.64 352.25C648.607 353.083 649.09 354.2 649.09 355.6C649.09 356.667 648.84 357.6 648.34 358.4C647.84 359.2 647.307 359.95 646.74 360.65C646.24 361.317 645.773 361.983 645.34 362.65C644.94 363.317 644.74 364.283 644.74 365.55V367.95H653.99V372.9H645.09Z" fill="black"/>
<path d="M732.031 328C734.298 328 735.915 328.517 736.881 329.55C737.848 330.55 738.331 331.833 738.331 333.4V335.65C738.331 336.483 738.231 337.217 738.031 337.85C737.865 338.483 737.648 339.05 737.381 339.55C737.115 340.05 736.815 340.5 736.481 340.9C736.148 341.3 735.831 341.667 735.531 342C734.965 342.667 734.565 343.25 734.331 343.75C734.131 344.217 734.031 344.717 734.031 345.25C734.031 346.117 734.481 346.783 735.381 347.25C736.281 347.717 737.631 347.95 739.431 347.95H743.931V352.95H739.431C737.631 352.95 736.281 353.183 735.381 353.65C734.481 354.117 734.031 354.783 734.031 355.65C734.031 356.183 734.131 356.7 734.331 357.2C734.565 357.667 734.965 358.233 735.531 358.9C735.831 359.267 736.148 359.65 736.481 360.05C736.815 360.417 737.115 360.85 737.381 361.35C737.648 361.85 737.865 362.417 738.031 363.05C738.231 363.683 738.331 364.417 738.331 365.25V367.5C738.331 369.067 737.848 370.35 736.881 371.35C735.915 372.383 734.298 372.9 732.031 372.9H723.131V367.95H732.381V365.55C732.381 364.283 732.165 363.317 731.731 362.65C731.331 361.983 730.881 361.317 730.381 360.65C729.815 359.95 729.281 359.2 728.781 358.4C728.281 357.6 728.031 356.667 728.031 355.6C728.031 354.2 728.515 353.083 729.481 352.25C730.448 351.417 731.931 350.883 733.931 350.65V350.25C731.931 350.017 730.448 349.483 729.481 348.65C728.515 347.817 728.031 346.7 728.031 345.3C728.031 344.233 728.281 343.3 728.781 342.5C729.281 341.7 729.815 340.95 730.381 340.25C730.881 339.583 731.331 338.917 731.731 338.25C732.165 337.583 732.381 336.617 732.381 335.35V332.95H723.131V328H732.031Z" fill="black"/>
<path d="M823.473 366.6C821.606 366.6 820.256 366.2 819.423 365.4C818.623 364.567 818.223 363.583 818.223 362.45V360.7C818.223 359.567 818.623 358.6 819.423 357.8C820.256 356.967 821.606 356.55 823.473 356.55C825.339 356.55 826.673 356.967 827.473 357.8C828.306 358.6 828.723 359.567 828.723 360.7V362.45C828.723 363.583 828.306 364.567 827.473 365.4C826.673 366.2 825.339 366.6 823.473 366.6ZM823.473 349.65C821.606 349.65 820.256 349.25 819.423 348.45C818.623 347.617 818.223 346.633 818.223 345.5V343.75C818.223 342.617 818.623 341.65 819.423 340.85C820.256 340.017 821.606 339.6 823.473 339.6C825.339 339.6 826.673 340.017 827.473 340.85C828.306 341.65 828.723 342.617 828.723 343.75V345.5C828.723 346.633 828.306 347.617 827.473 348.45C826.673 349.25 825.339 349.65 823.473 349.65Z" fill="black"/>
<path d="M903.014 366V331.1H910.564V359.85H925.564V366H903.014Z" fill="black"/>
<path d="M1002.36 351.45L999.255 355.8V366H991.755V331.1H999.255V345.7H999.656L1003.46 339.9L1009.61 331.1H1018.01L1007.56 345.85L1018.51 366H1010.06L1002.36 351.45Z" fill="black"/>
<path d="M24.55 396.1V421.25C24.55 422.817 24.2667 424.25 23.7 425.55C23.1667 426.817 22.3834 427.9 21.35 428.8C20.35 429.7 19.1334 430.4 17.7 430.9C16.2667 431.367 14.6667 431.6 12.9 431.6C9.33336 431.6 6.56669 430.717 4.60002 428.95C2.66669 427.15 1.43336 424.8 0.900024 421.9L8.00002 420.45C8.26669 421.95 8.76669 423.167 9.50002 424.1C10.2667 425.033 11.4 425.5 12.9 425.5C14.1667 425.5 15.15 425.1 15.85 424.3C16.5834 423.467 16.95 422.2 16.95 420.5V402.25H5.45002V396.1H24.55Z" fill="black"/>
<path d="M108.341 416.4H99.5414V431H91.9914V396.1H99.5414V410.25H108.341V396.1H115.891V431H108.341V416.4Z" fill="black"/>
<path d="M199.433 426.05H198.983C198.683 426.783 198.316 427.483 197.883 428.15C197.45 428.817 196.916 429.417 196.283 429.95C195.65 430.45 194.9 430.85 194.033 431.15C193.2 431.45 192.249 431.6 191.183 431.6C189.483 431.6 187.966 431.2 186.633 430.4C185.333 429.6 184.233 428.433 183.333 426.9C182.433 425.367 181.75 423.5 181.283 421.3C180.85 419.1 180.633 416.617 180.633 413.85C180.633 407.917 181.716 403.383 183.883 400.25C186.05 397.083 189.399 395.5 193.933 395.5C195.733 395.5 197.316 395.75 198.683 396.25C200.049 396.717 201.216 397.4 202.183 398.3C203.183 399.167 204 400.217 204.633 401.45C205.266 402.683 205.766 404.05 206.133 405.55L199.133 407.25C198.933 406.517 198.699 405.817 198.433 405.15C198.199 404.45 197.883 403.833 197.483 403.3C197.083 402.767 196.583 402.35 195.983 402.05C195.383 401.717 194.65 401.55 193.783 401.55C191.883 401.55 190.533 402.333 189.733 403.9C188.966 405.467 188.583 407.667 188.583 410.5V416.2C188.583 419.033 189 421.3 189.833 423C190.7 424.7 192.216 425.55 194.383 425.55C196.083 425.55 197.349 425.05 198.183 424.05C199.016 423.05 199.433 421.767 199.433 420.2V417.65H193.483V412.35H206.133V431H199.433V426.05Z" fill="black"/>
<path d="M272.824 431V396.1H295.974V402.25H280.324V410.25H294.324V416.4H280.324V431H272.824Z" fill="black"/>
<path d="M361.966 396.1H373.216C377.916 396.1 381.399 397.6 383.666 400.6C385.932 403.6 387.066 407.917 387.066 413.55C387.066 419.183 385.932 423.5 383.666 426.5C381.399 429.5 377.916 431 373.216 431H361.966V396.1ZM372.716 425.1C374.949 425.1 376.582 424.383 377.616 422.95C378.649 421.517 379.166 419.433 379.166 416.7V410.35C379.166 407.65 378.649 405.583 377.616 404.15C376.582 402.717 374.949 402 372.716 402H369.366V425.1H372.716Z" fill="black"/>
<path d="M463.157 431.6C460.224 431.6 457.674 431.117 455.507 430.15C453.34 429.183 451.59 427.867 450.257 426.2L454.607 421.4C455.874 422.8 457.257 423.833 458.757 424.5C460.29 425.167 461.84 425.5 463.407 425.5C465.207 425.5 466.574 425.1 467.507 424.3C468.44 423.5 468.907 422.35 468.907 420.85C468.907 419.617 468.54 418.683 467.807 418.05C467.107 417.417 465.907 416.967 464.207 416.7L460.557 416.1C457.424 415.567 455.157 414.417 453.757 412.65C452.357 410.85 451.657 408.667 451.657 406.1C451.657 402.733 452.757 400.133 454.957 398.3C457.157 396.433 460.24 395.5 464.207 395.5C466.907 395.5 469.257 395.917 471.257 396.75C473.257 397.583 474.874 398.717 476.107 400.15L471.857 404.9C470.924 403.867 469.824 403.067 468.557 402.5C467.29 401.9 465.857 401.6 464.257 401.6C460.89 401.6 459.207 402.983 459.207 405.75C459.207 406.95 459.574 407.85 460.307 408.45C461.074 409.05 462.307 409.5 464.007 409.8L467.657 410.45C470.49 410.95 472.674 412.017 474.207 413.65C475.74 415.283 476.507 417.483 476.507 420.25C476.507 421.883 476.224 423.4 475.657 424.8C475.09 426.167 474.24 427.367 473.107 428.4C471.974 429.4 470.574 430.183 468.907 430.75C467.274 431.317 465.357 431.6 463.157 431.6Z" fill="black"/>
<path d="M560.398 431L558.198 422.6H548.648L546.498 431H538.898L548.348 396.1H558.948L568.398 431H560.398ZM553.648 403.35H553.248L549.848 416.55H557.048L553.648 403.35Z" fill="black"/>
<path d="M656.14 431H630.99V424.45L647.24 402.25H631.49V396.1H655.64V402.65L639.39 424.85H656.14V431Z" fill="black"/>
<path d="M748.081 431H739.531L735.931 424.05L733.481 418.55H733.031L730.531 424.05L726.831 431H718.981L728.781 412.95L719.631 396.1H728.181L731.031 401.65L733.581 407.25H733.981L736.581 401.65L739.581 396.1H747.431L738.281 413.05L748.081 431Z" fill="black"/>
<path d="M824.273 431.6C819.606 431.6 816.139 430.033 813.873 426.9C811.639 423.733 810.523 419.283 810.523 413.55C810.523 407.817 811.639 403.383 813.873 400.25C816.139 397.083 819.606 395.5 824.273 395.5C826.073 395.5 827.656 395.75 829.023 396.25C830.423 396.717 831.623 397.383 832.623 398.25C833.623 399.117 834.439 400.167 835.073 401.4C835.739 402.633 836.256 404.017 836.623 405.55L829.623 407.25C829.423 406.417 829.189 405.65 828.923 404.95C828.656 404.25 828.306 403.65 827.873 403.15C827.473 402.65 826.956 402.267 826.323 402C825.723 401.7 824.989 401.55 824.123 401.55C822.089 401.55 820.639 402.35 819.773 403.95C818.939 405.517 818.523 407.7 818.523 410.5V416.6C818.523 419.4 818.939 421.6 819.773 423.2C820.639 424.767 822.089 425.55 824.123 425.55C825.856 425.55 827.106 425.017 827.873 423.95C828.673 422.883 829.256 421.517 829.623 419.85L836.623 421.55C836.256 423.083 835.739 424.467 835.073 425.7C834.439 426.933 833.623 428 832.623 428.9C831.623 429.767 830.423 430.433 829.023 430.9C827.656 431.367 826.073 431.6 824.273 431.6Z" fill="black"/>
<path d="M908.114 431L898.864 396.1H907.214L911.314 413.85L913.364 423.9H913.764L915.864 413.85L920.014 396.1H927.964L918.714 431H908.114Z" fill="black"/>
<path d="M992.206 396.1H1004.46C1007.89 396.1 1010.51 396.933 1012.31 398.6C1014.14 400.267 1015.06 402.533 1015.06 405.4C1015.06 407.4 1014.56 409 1013.56 410.2C1012.59 411.367 1011.19 412.217 1009.36 412.75V413.05C1011.52 413.583 1013.19 414.517 1014.36 415.85C1015.56 417.183 1016.16 419.033 1016.16 421.4C1016.16 424.333 1015.22 426.667 1013.36 428.4C1011.52 430.133 1008.94 431 1005.61 431H992.206V396.1ZM1003.31 425.75C1005.11 425.75 1006.42 425.45 1007.26 424.85C1008.09 424.25 1008.51 423.15 1008.51 421.55V420.1C1008.51 418.5 1008.09 417.4 1007.26 416.8C1006.42 416.2 1005.11 415.9 1003.31 415.9H999.505V425.75H1003.31ZM1002.36 410.9C1004.12 410.9 1005.41 410.617 1006.21 410.05C1007.01 409.45 1007.41 408.383 1007.41 406.85V405.35C1007.41 403.817 1007.01 402.767 1006.21 402.2C1005.41 401.633 1004.12 401.35 1002.36 401.35H999.505V410.9H1002.36Z" fill="black"/>
<path d="M9.00002 472.8H8.45002V496H2.05002V461.1H11.05L19 484.3H19.55V461.1H25.95V496H16.95L9.00002 472.8Z" fill="black"/>
<path d="M110.491 480.45L110.891 470.7H110.441L103.941 488.65L97.4414 470.7H96.9914L97.3914 480.45V496H90.8914V461.1H99.7414L104.041 472.85H104.441L108.741 461.1H116.991V496H110.491V480.45Z" fill="black"/>
<path d="M183.133 484.2V477.3L204.633 465.8V472.7L189.783 480.55V480.95L204.633 488.8V495.7L183.133 484.2Z" fill="black"/>
<path d="M273.074 488.8L287.924 480.95V480.55L273.074 472.7V465.8L294.574 477.3V484.2L273.074 495.7V488.8Z" fill="black"/>
<path d="M363.466 496V489.95H372.866V466.55H372.416L365.316 475.85L360.516 472.1L368.866 461.1H380.366V489.95H387.766V496H363.466Z" fill="black"/>
<path d="M403.746 496.6C399.079 496.6 395.629 495.017 393.396 491.85C391.196 488.683 390.096 484.25 390.096 478.55C390.096 472.85 391.196 468.417 393.396 465.25C395.629 462.083 399.079 460.5 403.746 460.5C408.413 460.5 411.846 462.083 414.046 465.25C416.279 468.417 417.396 472.85 417.396 478.55C417.396 484.25 416.279 488.683 414.046 491.85C411.846 495.017 408.413 496.6 403.746 496.6ZM403.746 490.7C405.979 490.7 407.529 489.917 408.396 488.35C409.296 486.783 409.746 484.6 409.746 481.8V475.3C409.746 472.5 409.296 470.317 408.396 468.75C407.529 467.183 405.979 466.4 403.746 466.4C401.513 466.4 399.946 467.183 399.046 468.75C398.179 470.317 397.746 472.5 397.746 475.3V481.8C397.746 484.6 398.179 486.783 399.046 488.35C399.946 489.917 401.513 490.7 403.746 490.7ZM403.746 481.5C402.579 481.5 401.763 481.267 401.296 480.8C400.863 480.333 400.646 479.767 400.646 479.1V478C400.646 477.333 400.863 476.767 401.296 476.3C401.763 475.833 402.579 475.6 403.746 475.6C404.913 475.6 405.713 475.833 406.146 476.3C406.613 476.767 406.846 477.333 406.846 478V479.1C406.846 479.767 406.613 480.333 406.146 480.8C405.713 481.267 404.913 481.5 403.746 481.5Z" fill="black"/>
<path d="M483.388 496V489.95H492.788V466.55H492.338L485.238 475.85L480.438 472.1L488.788 461.1H500.288V489.95H507.688V496H483.388Z" fill="black"/>
<path d="M513.368 496V489.95H522.768V466.55H522.318L515.218 475.85L510.418 472.1L518.768 461.1H530.268V489.95H537.668V496H513.368Z" fill="black"/>
<path d="M603.309 496V489.95H612.709V466.55H612.259L605.159 475.85L600.359 472.1L608.709 461.1H620.209V489.95H627.609V496H603.309Z" fill="black"/>
<path d="M656.34 496H631.24V489.15L642.24 480C644.14 478.367 645.507 476.95 646.34 475.75C647.173 474.55 647.59 473.283 647.59 471.95V471.45C647.59 469.983 647.157 468.883 646.29 468.15C645.423 467.383 644.257 467 642.79 467C641.123 467 639.84 467.483 638.94 468.45C638.04 469.417 637.407 470.567 637.04 471.9L630.49 469.4C630.89 468.2 631.44 467.067 632.14 466C632.84 464.9 633.723 463.95 634.79 463.15C635.89 462.35 637.157 461.717 638.59 461.25C640.023 460.75 641.673 460.5 643.54 460.5C645.44 460.5 647.14 460.767 648.64 461.3C650.14 461.833 651.407 462.567 652.44 463.5C653.473 464.433 654.257 465.55 654.79 466.85C655.323 468.117 655.59 469.5 655.59 471C655.59 472.467 655.34 473.817 654.84 475.05C654.373 476.25 653.707 477.383 652.84 478.45C652.007 479.517 651.007 480.55 649.84 481.55C648.707 482.55 647.49 483.55 646.19 484.55L639.54 489.7H656.34V496Z" fill="black"/>
<path d="M723.231 496V489.95H732.631V466.55H732.181L725.081 475.85L720.281 472.1L728.631 461.1H740.131V489.95H747.531V496H723.231Z" fill="black"/>
<path d="M762.162 474.9C764.095 474.9 765.495 474.533 766.362 473.8C767.262 473.067 767.712 472.167 767.712 471.1V470.75C767.712 469.483 767.278 468.483 766.412 467.75C765.578 466.983 764.378 466.6 762.812 466.6C761.378 466.6 760.028 466.967 758.762 467.7C757.528 468.4 756.478 469.417 755.612 470.75L750.862 466.35C751.528 465.483 752.262 464.7 753.062 464C753.862 463.267 754.745 462.65 755.712 462.15C756.678 461.617 757.762 461.217 758.962 460.95C760.195 460.65 761.578 460.5 763.112 460.5C765.012 460.5 766.728 460.717 768.262 461.15C769.795 461.583 771.095 462.217 772.162 463.05C773.262 463.85 774.112 464.817 774.712 465.95C775.312 467.083 775.612 468.35 775.612 469.75C775.612 470.85 775.428 471.85 775.062 472.75C774.695 473.65 774.195 474.433 773.562 475.1C772.962 475.767 772.245 476.317 771.412 476.75C770.612 477.15 769.745 477.433 768.812 477.6V477.9C770.945 478.267 772.712 479.167 774.112 480.6C775.545 482 776.262 483.9 776.262 486.3C776.262 487.867 775.928 489.283 775.262 490.55C774.628 491.817 773.712 492.9 772.512 493.8C771.345 494.7 769.912 495.4 768.212 495.9C766.545 496.367 764.678 496.6 762.612 496.6C760.845 496.6 759.278 496.417 757.912 496.05C756.578 495.683 755.395 495.2 754.362 494.6C753.328 493.967 752.428 493.25 751.662 492.45C750.928 491.617 750.278 490.767 749.712 489.9L755.262 485.6C756.028 487.033 756.978 488.217 758.112 489.15C759.278 490.05 760.828 490.5 762.762 490.5C764.562 490.5 765.945 490.083 766.912 489.25C767.878 488.417 768.362 487.267 768.362 485.8V485.45C768.362 484.017 767.812 482.95 766.712 482.25C765.612 481.517 764.078 481.15 762.112 481.15H758.862V474.9H762.162Z" fill="black"/>
<path d="M843.153 496V489.95H852.553V466.55H852.103L845.003 475.85L840.203 472.1L848.553 461.1H860.053V489.95H867.453V496H843.153Z" fill="black"/>
<path d="M885.384 496V489.3H869.684V482.9L883.584 461.1H892.584V483.5H897.084V489.3H892.584V496H885.384ZM875.734 483.5H885.384V468.85H884.934L875.734 483.5Z" fill="black"/>
<path d="M963.075 496V489.95H972.475V466.55H972.025L964.925 475.85L960.125 472.1L968.475 461.1H979.975V489.95H987.375V496H963.075Z" fill="black"/>
<path d="M1014.61 467.65H998.456L997.656 478.7H998.105C998.472 477.9 998.889 477.167 999.355 476.5C999.822 475.8 1000.37 475.217 1001.01 474.75C1001.64 474.25 1002.37 473.867 1003.21 473.6C1004.04 473.333 1004.99 473.2 1006.06 473.2C1007.49 473.2 1008.84 473.45 1010.11 473.95C1011.41 474.45 1012.54 475.183 1013.51 476.15C1014.51 477.083 1015.29 478.25 1015.86 479.65C1016.42 481.017 1016.71 482.567 1016.71 484.3C1016.71 486.067 1016.41 487.7 1015.81 489.2C1015.21 490.7 1014.32 492 1013.16 493.1C1012.02 494.2 1010.61 495.067 1008.91 495.7C1007.21 496.3 1005.27 496.6 1003.11 496.6C1001.41 496.6 999.889 496.417 998.555 496.05C997.222 495.683 996.039 495.2 995.005 494.6C994.005 493.967 993.122 493.25 992.355 492.45C991.622 491.617 990.989 490.767 990.456 489.9L995.906 485.6C996.306 486.267 996.722 486.9 997.156 487.5C997.622 488.1 998.139 488.633 998.706 489.1C999.306 489.533 999.956 489.883 1000.66 490.15C1001.39 490.383 1002.22 490.5 1003.16 490.5C1005.02 490.5 1006.42 490 1007.36 489C1008.32 487.967 1008.81 486.6 1008.81 484.9V484.5C1008.81 482.867 1008.32 481.583 1007.36 480.65C1006.39 479.717 1005.06 479.25 1003.36 479.25C1001.96 479.25 1000.79 479.533 999.855 480.1C998.955 480.633 998.272 481.167 997.805 481.7L991.656 480.85L992.956 461.1H1014.61V467.65Z" fill="black"/>
<path d="M3.70002 561V554.95H13.1V531.55H12.65L5.55002 540.85L0.750024 537.1L9.10002 526.1H20.6V554.95H28V561H3.70002Z" fill="black"/>
<path d="M44.1805 561.6C42.0805 561.6 40.1972 561.283 38.5305 560.65C36.8972 559.983 35.5138 559.05 34.3805 557.85C33.2472 556.617 32.3805 555.15 31.7805 553.45C31.1805 551.75 30.8805 549.85 30.8805 547.75C30.8805 545.317 31.2638 543.017 32.0305 540.85C32.7972 538.65 33.7805 536.633 34.9805 534.8C36.2138 532.933 37.5805 531.267 39.0805 529.8C40.6138 528.333 42.1305 527.1 43.6305 526.1H53.9805C51.8138 527.6 49.8638 529.05 48.1305 530.45C46.4305 531.817 44.9305 533.2 43.6305 534.6C42.3638 535.967 41.3138 537.383 40.4805 538.85C39.6805 540.317 39.0972 541.9 38.7305 543.6L39.1805 543.75C39.4805 543.083 39.8472 542.433 40.2805 541.8C40.7138 541.167 41.2472 540.617 41.8805 540.15C42.5138 539.65 43.2472 539.25 44.0805 538.95C44.9472 538.65 45.9472 538.5 47.0805 538.5C48.5472 538.5 49.9138 538.767 51.1805 539.3C52.4472 539.8 53.5305 540.533 54.4305 541.5C55.3638 542.433 56.0972 543.567 56.6305 544.9C57.1638 546.233 57.4305 547.733 57.4305 549.4C57.4305 551.167 57.1138 552.8 56.4805 554.3C55.8472 555.8 54.9472 557.1 53.7805 558.2C52.6472 559.267 51.2638 560.1 49.6305 560.7C47.9972 561.3 46.1805 561.6 44.1805 561.6ZM44.1305 555.75C45.9305 555.75 47.2972 555.283 48.2305 554.35C49.1638 553.383 49.6305 552.033 49.6305 550.3V549.6C49.6305 547.867 49.1472 546.55 48.1805 545.65C47.2472 544.717 45.8972 544.25 44.1305 544.25C42.4305 544.25 41.0972 544.717 40.1305 545.65C39.1638 546.55 38.6805 547.867 38.6805 549.6V550.3C38.6805 552.033 39.1305 553.383 40.0305 554.35C40.9638 555.283 42.3305 555.75 44.1305 555.75Z" fill="black"/>
<path d="M123.622 561V554.95H133.022V531.55H132.572L125.472 540.85L120.672 537.1L129.022 526.1H140.522V554.95H147.922V561H123.622Z" fill="black"/>
<path d="M157.102 561L169.102 532.2H157.802V538.55H151.452V526.1H176.552V532.6L165.002 561H157.102Z" fill="black"/>
<path d="M243.544 561V554.95H252.944V531.55H252.494L245.394 540.85L240.594 537.1L248.944 526.1H260.444V554.95H267.844V561H243.544Z" fill="black"/>
<path d="M283.824 561.6C281.724 561.6 279.858 561.35 278.224 560.85C276.591 560.317 275.208 559.6 274.074 558.7C272.941 557.8 272.074 556.733 271.474 555.5C270.908 554.233 270.624 552.867 270.624 551.4C270.624 549.133 271.274 547.317 272.574 545.95C273.874 544.55 275.541 543.567 277.574 543V542.6C275.841 541.967 274.424 541 273.324 539.7C272.224 538.4 271.674 536.733 271.674 534.7C271.674 533.367 271.941 532.133 272.474 531C273.008 529.867 273.791 528.9 274.824 528.1C275.858 527.267 277.124 526.633 278.624 526.2C280.124 525.733 281.858 525.5 283.824 525.5C285.758 525.5 287.474 525.733 288.974 526.2C290.508 526.633 291.791 527.267 292.824 528.1C293.858 528.9 294.641 529.867 295.174 531C295.708 532.133 295.974 533.367 295.974 534.7C295.974 536.733 295.424 538.4 294.324 539.7C293.224 541 291.808 541.967 290.074 542.6V543C292.108 543.567 293.774 544.55 295.074 545.95C296.374 547.317 297.024 549.133 297.024 551.4C297.024 552.867 296.724 554.233 296.124 555.5C295.558 556.733 294.708 557.8 293.574 558.7C292.441 559.6 291.058 560.317 289.424 560.85C287.791 561.35 285.924 561.6 283.824 561.6ZM283.824 555.85C285.558 555.85 286.874 555.45 287.774 554.65C288.708 553.85 289.174 552.767 289.174 551.4V550.4C289.174 549 288.724 547.917 287.824 547.15C286.924 546.35 285.591 545.95 283.824 545.95C282.058 545.95 280.724 546.35 279.824 547.15C278.924 547.917 278.474 549 278.474 550.4V551.4C278.474 552.767 278.924 553.85 279.824 554.65C280.758 555.45 282.091 555.85 283.824 555.85ZM283.824 540.45C285.491 540.45 286.758 540.067 287.624 539.3C288.491 538.533 288.924 537.5 288.924 536.2V535.45C288.924 534.15 288.474 533.133 287.574 532.4C286.708 531.633 285.458 531.25 283.824 531.25C282.191 531.25 280.924 531.633 280.024 532.4C279.158 533.133 278.724 534.15 278.724 535.45V536.2C278.724 537.5 279.158 538.533 280.024 539.3C280.891 540.067 282.158 540.45 283.824 540.45Z" fill="black"/>
<path d="M363.466 561V554.95H372.866V531.55H372.416L365.316 540.85L360.516 537.1L368.866 526.1H380.366V554.95H387.766V561H363.466Z" fill="black"/>
<path d="M416.846 539.35C416.846 541.817 416.463 544.133 415.696 546.3C414.929 548.467 413.929 550.483 412.696 552.35C411.496 554.183 410.129 555.833 408.596 557.3C407.096 558.767 405.596 560 404.096 561H393.746C395.913 559.5 397.846 558.067 399.546 556.7C401.279 555.3 402.779 553.917 404.046 552.55C405.346 551.15 406.396 549.717 407.196 548.25C408.029 546.783 408.629 545.2 408.996 543.5L408.546 543.35C408.246 544.017 407.863 544.667 407.396 545.3C406.963 545.933 406.429 546.5 405.796 547C405.196 547.467 404.463 547.85 403.596 548.15C402.763 548.45 401.779 548.6 400.646 548.6C399.179 548.6 397.813 548.35 396.546 547.85C395.279 547.317 394.179 546.583 393.246 545.65C392.346 544.683 391.629 543.533 391.096 542.2C390.563 540.867 390.296 539.367 390.296 537.7C390.296 535.933 390.613 534.3 391.246 532.8C391.879 531.3 392.763 530.017 393.896 528.95C395.063 527.85 396.463 527 398.096 526.4C399.729 525.8 401.546 525.5 403.546 525.5C405.646 525.5 407.513 525.833 409.146 526.5C410.813 527.133 412.213 528.067 413.346 529.3C414.479 530.5 415.346 531.95 415.946 533.65C416.546 535.35 416.846 537.25 416.846 539.35ZM403.596 542.85C405.296 542.85 406.629 542.4 407.596 541.5C408.563 540.567 409.046 539.233 409.046 537.5V536.8C409.046 535.067 408.579 533.733 407.646 532.8C406.746 531.833 405.396 531.35 403.596 531.35C401.796 531.35 400.429 531.833 399.496 532.8C398.563 533.733 398.096 535.067 398.096 536.8V537.5C398.096 539.233 398.563 540.567 399.496 541.5C400.463 542.4 401.829 542.85 403.596 542.85Z" fill="black"/>
<path d="M506.438 561H481.338V554.15L492.338 545C494.238 543.367 495.604 541.95 496.438 540.75C497.271 539.55 497.688 538.283 497.688 536.95V536.45C497.688 534.983 497.254 533.883 496.388 533.15C495.521 532.383 494.354 532 492.888 532C491.221 532 489.938 532.483 489.038 533.45C488.138 534.417 487.504 535.567 487.138 536.9L480.588 534.4C480.988 533.2 481.538 532.067 482.238 531C482.938 529.9 483.821 528.95 484.888 528.15C485.988 527.35 487.254 526.717 488.688 526.25C490.121 525.75 491.771 525.5 493.638 525.5C495.538 525.5 497.238 525.767 498.738 526.3C500.238 526.833 501.504 527.567 502.538 528.5C503.571 529.433 504.354 530.55 504.888 531.85C505.421 533.117 505.688 534.5 505.688 536C505.688 537.467 505.438 538.817 504.938 540.05C504.471 541.25 503.804 542.383 502.938 543.45C502.104 544.517 501.104 545.55 499.938 546.55C498.804 547.55 497.588 548.55 496.288 549.55L489.638 554.7H506.438V561Z" fill="black"/>
<path d="M523.668 561.6C519.001 561.6 515.551 560.017 513.318 556.85C511.118 553.683 510.018 549.25 510.018 543.55C510.018 537.85 511.118 533.417 513.318 530.25C515.551 527.083 519.001 525.5 523.668 525.5C528.335 525.5 531.768 527.083 533.968 530.25C536.201 533.417 537.318 537.85 537.318 543.55C537.318 549.25 536.201 553.683 533.968 556.85C531.768 560.017 528.335 561.6 523.668 561.6ZM523.668 555.7C525.901 555.7 527.451 554.917 528.318 553.35C529.218 551.783 529.668 549.6 529.668 546.8V540.3C529.668 537.5 529.218 535.317 528.318 533.75C527.451 532.183 525.901 531.4 523.668 531.4C521.435 531.4 519.868 532.183 518.968 533.75C518.101 535.317 517.668 537.5 517.668 540.3V546.8C517.668 549.6 518.101 551.783 518.968 553.35C519.868 554.917 521.435 555.7 523.668 555.7ZM523.668 546.5C522.501 546.5 521.685 546.267 521.218 545.8C520.785 545.333 520.568 544.767 520.568 544.1V543C520.568 542.333 520.785 541.767 521.218 541.3C521.685 540.833 522.501 540.6 523.668 540.6C524.835 540.6 525.635 540.833 526.068 541.3C526.535 541.767 526.768 542.333 526.768 543V544.1C526.768 544.767 526.535 545.333 526.068 545.8C525.635 546.267 524.835 546.5 523.668 546.5Z" fill="black"/>
<path d="M626.359 561H601.259V554.15L612.259 545C614.159 543.367 615.526 541.95 616.359 540.75C617.193 539.55 617.609 538.283 617.609 536.95V536.45C617.609 534.983 617.176 533.883 616.309 533.15C615.443 532.383 614.276 532 612.809 532C611.143 532 609.859 532.483 608.959 533.45C608.059 534.417 607.426 535.567 607.059 536.9L600.509 534.4C600.909 533.2 601.459 532.067 602.159 531C602.859 529.9 603.743 528.95 604.809 528.15C605.909 527.35 607.176 526.717 608.609 526.25C610.043 525.75 611.693 525.5 613.559 525.5C615.459 525.5 617.159 525.767 618.659 526.3C620.159 526.833 621.426 527.567 622.459 528.5C623.493 529.433 624.276 530.55 624.809 531.85C625.343 533.117 625.609 534.5 625.609 536C625.609 537.467 625.359 538.817 624.859 540.05C624.393 541.25 623.726 542.383 622.859 543.45C622.026 544.517 621.026 545.55 619.859 546.55C618.726 547.55 617.509 548.55 616.209 549.55L609.559 554.7H626.359V561Z" fill="black"/>
<path d="M633.29 561V554.95H642.69V531.55H642.24L635.14 540.85L630.34 537.1L638.69 526.1H650.19V554.95H657.59V561H633.29Z" fill="black"/>
<path d="M746.281 561H721.181V554.15L732.181 545C734.081 543.367 735.448 541.95 736.281 540.75C737.115 539.55 737.531 538.283 737.531 536.95V536.45C737.531 534.983 737.098 533.883 736.231 533.15C735.365 532.383 734.198 532 732.731 532C731.065 532 729.781 532.483 728.881 533.45C727.981 534.417 727.348 535.567 726.981 536.9L720.431 534.4C720.831 533.2 721.381 532.067 722.081 531C722.781 529.9 723.665 528.95 724.731 528.15C725.831 527.35 727.098 526.717 728.531 526.25C729.965 525.75 731.615 525.5 733.481 525.5C735.381 525.5 737.081 525.767 738.581 526.3C740.081 526.833 741.348 527.567 742.381 528.5C743.415 529.433 744.198 530.55 744.731 531.85C745.265 533.117 745.531 534.5 745.531 536C745.531 537.467 745.281 538.817 744.781 540.05C744.315 541.25 743.648 542.383 742.781 543.45C741.948 544.517 740.948 545.55 739.781 546.55C738.648 547.55 737.431 548.55 736.131 549.55L729.481 554.7H746.281V561Z" fill="black"/>
<path d="M776.262 561H751.162V554.15L762.162 545C764.062 543.367 765.428 541.95 766.262 540.75C767.095 539.55 767.512 538.283 767.512 536.95V536.45C767.512 534.983 767.078 533.883 766.212 533.15C765.345 532.383 764.178 532 762.712 532C761.045 532 759.762 532.483 758.862 533.45C757.962 534.417 757.328 535.567 756.962 536.9L750.412 534.4C750.812 533.2 751.362 532.067 752.062 531C752.762 529.9 753.645 528.95 754.712 528.15C755.812 527.35 757.078 526.717 758.512 526.25C759.945 525.75 761.595 525.5 763.462 525.5C765.362 525.5 767.062 525.767 768.562 526.3C770.062 526.833 771.328 527.567 772.362 528.5C773.395 529.433 774.178 530.55 774.712 531.85C775.245 533.117 775.512 534.5 775.512 536C775.512 537.467 775.262 538.817 774.762 540.05C774.295 541.25 773.628 542.383 772.762 543.45C771.928 544.517 770.928 545.55 769.762 546.55C768.628 547.55 767.412 548.55 766.112 549.55L759.462 554.7H776.262V561Z" fill="black"/>
<path d="M866.203 561H841.103V554.15L852.103 545C854.003 543.367 855.37 541.95 856.203 540.75C857.036 539.55 857.453 538.283 857.453 536.95V536.45C857.453 534.983 857.02 533.883 856.153 533.15C855.286 532.383 854.12 532 852.653 532C850.986 532 849.703 532.483 848.803 533.45C847.903 534.417 847.27 535.567 846.903 536.9L840.353 534.4C840.753 533.2 841.303 532.067 842.003 531C842.703 529.9 843.586 528.95 844.653 528.15C845.753 527.35 847.02 526.717 848.453 526.25C849.886 525.75 851.536 525.5 853.403 525.5C855.303 525.5 857.003 525.767 858.503 526.3C860.003 526.833 861.27 527.567 862.303 528.5C863.336 529.433 864.12 530.55 864.653 531.85C865.186 533.117 865.453 534.5 865.453 536C865.453 537.467 865.203 538.817 864.703 540.05C864.236 541.25 863.57 542.383 862.703 543.45C861.87 544.517 860.87 545.55 859.703 546.55C858.57 547.55 857.353 548.55 856.053 549.55L849.403 554.7H866.203V561Z" fill="black"/>
<path d="M882.084 539.9C884.017 539.9 885.417 539.533 886.284 538.8C887.184 538.067 887.634 537.167 887.634 536.1V535.75C887.634 534.483 887.2 533.483 886.334 532.75C885.5 531.983 884.3 531.6 882.734 531.6C881.3 531.6 879.95 531.967 878.684 532.7C877.45 533.4 876.4 534.417 875.534 535.75L870.784 531.35C871.45 530.483 872.184 529.7 872.984 529C873.784 528.267 874.667 527.65 875.634 527.15C876.6 526.617 877.684 526.217 878.884 525.95C880.117 525.65 881.5 525.5 883.034 525.5C884.934 525.5 886.65 525.717 888.184 526.15C889.717 526.583 891.017 527.217 892.084 528.05C893.184 528.85 894.034 529.817 894.634 530.95C895.234 532.083 895.534 533.35 895.534 534.75C895.534 535.85 895.35 536.85 894.984 537.75C894.617 538.65 894.117 539.433 893.484 540.1C892.884 540.767 892.167 541.317 891.334 541.75C890.534 542.15 889.667 542.433 888.734 542.6V542.9C890.867 543.267 892.634 544.167 894.034 545.6C895.467 547 896.184 548.9 896.184 551.3C896.184 552.867 895.85 554.283 895.184 555.55C894.55 556.817 893.634 557.9 892.434 558.8C891.267 559.7 889.834 560.4 888.134 560.9C886.467 561.367 884.6 561.6 882.534 561.6C880.767 561.6 879.2 561.417 877.834 561.05C876.5 560.683 875.317 560.2 874.284 559.6C873.25 558.967 872.35 558.25 871.584 557.45C870.85 556.617 870.2 555.767 869.634 554.9L875.184 550.6C875.95 552.033 876.9 553.217 878.034 554.15C879.2 555.05 880.75 555.5 882.684 555.5C884.484 555.5 885.867 555.083 886.834 554.25C887.8 553.417 888.284 552.267 888.284 550.8V550.45C888.284 549.017 887.734 547.95 886.634 547.25C885.534 546.517 884 546.15 882.034 546.15H878.784V539.9H882.084Z" fill="black"/>
<path d="M986.125 561H961.025V554.15L972.025 545C973.925 543.367 975.292 541.95 976.125 540.75C976.958 539.55 977.375 538.283 977.375 536.95V536.45C977.375 534.983 976.942 533.883 976.075 533.15C975.208 532.383 974.042 532 972.575 532C970.908 532 969.625 532.483 968.725 533.45C967.825 534.417 967.192 535.567 966.825 536.9L960.275 534.4C960.675 533.2 961.225 532.067 961.925 531C962.625 529.9 963.508 528.95 964.575 528.15C965.675 527.35 966.942 526.717 968.375 526.25C969.808 525.75 971.458 525.5 973.325 525.5C975.225 525.5 976.925 525.767 978.425 526.3C979.925 526.833 981.192 527.567 982.225 528.5C983.258 529.433 984.042 530.55 984.575 531.85C985.108 533.117 985.375 534.5 985.375 536C985.375 537.467 985.125 538.817 984.625 540.05C984.158 541.25 983.492 542.383 982.625 543.45C981.792 544.517 980.792 545.55 979.625 546.55C978.492 547.55 977.275 548.55 975.975 549.55L969.325 554.7H986.125V561Z" fill="black"/>
<path d="M1005.31 561V554.3H989.605V547.9L1003.51 526.1H1012.51V548.5H1017.01V554.3H1012.51V561H1005.31ZM995.656 548.5H1005.31V533.85H1004.86L995.656 548.5Z" fill="black"/>
<path d="M26.75 626H1.65002V619.15L12.65 610C14.55 608.367 15.9167 606.95 16.75 605.75C17.5834 604.55 18 603.283 18 601.95V601.45C18 599.983 17.5667 598.883 16.7 598.15C15.8334 597.383 14.6667 597 13.2 597C11.5334 597 10.25 597.483 9.35003 598.45C8.45002 599.417 7.81669 600.567 7.45003 601.9L0.900024 599.4C1.30002 598.2 1.85002 597.067 2.55002 596C3.25002 594.9 4.13336 593.95 5.20002 593.15C6.30002 592.35 7.56669 591.717 9.00002 591.25C10.4334 590.75 12.0834 590.5 13.95 590.5C15.85 590.5 17.55 590.767 19.05 591.3C20.55 591.833 21.8167 592.567 22.85 593.5C23.8834 594.433 24.6667 595.55 25.2 596.85C25.7334 598.117 26 599.5 26 601C26 602.467 25.75 603.817 25.25 605.05C24.7834 606.25 24.1167 607.383 23.25 608.45C22.4167 609.517 21.4167 610.55 20.25 611.55C19.1167 612.55 17.9 613.55 16.6 614.55L9.95002 619.7H26.75V626Z" fill="black"/>
<path d="M55.2305 597.65H39.0805L38.2805 608.7H38.7305C39.0972 607.9 39.5138 607.167 39.9805 606.5C40.4472 605.8 40.9972 605.217 41.6305 604.75C42.2638 604.25 42.9972 603.867 43.8305 603.6C44.6638 603.333 45.6138 603.2 46.6805 603.2C48.1138 603.2 49.4638 603.45 50.7305 603.95C52.0305 604.45 53.1638 605.183 54.1305 606.15C55.1305 607.083 55.9138 608.25 56.4805 609.65C57.0472 611.017 57.3305 612.567 57.3305 614.3C57.3305 616.067 57.0305 617.7 56.4305 619.2C55.8305 620.7 54.9472 622 53.7805 623.1C52.6472 624.2 51.2305 625.067 49.5305 625.7C47.8305 626.3 45.8972 626.6 43.7305 626.6C42.0305 626.6 40.5138 626.417 39.1805 626.05C37.8472 625.683 36.6638 625.2 35.6305 624.6C34.6305 623.967 33.7472 623.25 32.9805 622.45C32.2472 621.617 31.6138 620.767 31.0805 619.9L36.5305 615.6C36.9305 616.267 37.3472 616.9 37.7805 617.5C38.2472 618.1 38.7638 618.633 39.3305 619.1C39.9305 619.533 40.5805 619.883 41.2805 620.15C42.0138 620.383 42.8472 620.5 43.7805 620.5C45.6472 620.5 47.0472 620 47.9805 619C48.9472 617.967 49.4305 616.6 49.4305 614.9V614.5C49.4305 612.867 48.9472 611.583 47.9805 610.65C47.0138 609.717 45.6805 609.25 43.9805 609.25C42.5805 609.25 41.4138 609.533 40.4805 610.1C39.5805 610.633 38.8972 611.167 38.4305 611.7L32.2805 610.85L33.5805 591.1H55.2305V597.65Z" fill="black"/>
</svg>
